<?xml version="1.0"?>
<svg width="640" height="480" xmlns="http://www.w3.org/2000/svg" xmlns:svg="http://www.w3.org/2000/svg" xmlns:xlink="http://www.w3.org/1999/xlink">
 <!-- Created with SVG-edit - https://github.com/SVG-Edit/svgedit-->
 <defs>
  <symbol id="svg_18" viewBox="0 0 323.78 52.34" xmlns="http://www.w3.org/2000/svg" xmlns:xlink="http://www.w3.org/1999/xlink">
   <defs>
    <style>.cls-1{fill:url(#linear-gradient);}.cls-2{fill:url(#linear-gradient-2);}.cls-3,.cls-4{fill:none;}.cls-4{clip-rule:evenodd;}.cls-5{clip-path:url(#clip-path);}.cls-6{fill:#242021;}.cls-12,.cls-16,.cls-19,.cls-6,.cls-8{fill-rule:evenodd;}.cls-7{fill:#2b2a29;}.cls-8{fill:#ed2024;}.cls-9{mask:url(#mask);}.cls-10{fill:#ffed00;}.cls-11{mask:url(#mask-2);}.cls-12{fill:#2f7246;}.cls-13,.cls-19{fill:#e8bc42;}.cls-14{clip-path:url(#clip-path-2);}.cls-15{fill:url(#linear-gradient-3);}.cls-16{fill:#915e28;}.cls-17{clip-path:url(#clip-path-3);}.cls-18{fill:url(#linear-gradient-4);}.cls-20{clip-path:url(#clip-path-4);}.cls-21{fill:url(#linear-gradient-5);}.cls-22{clip-path:url(#clip-path-5);}.cls-23{fill:url(#linear-gradient-6);}.cls-24{clip-path:url(#clip-path-6);}.cls-25{fill:url(#linear-gradient-7);}</style>
    <clipPath id="svg_15" transform="translate(-1 -1)">
     <rect class="cls-3" height="54.34" width="325.78"/>
    </clipPath>
    <mask height="20.6" id="svg_14" maskUnits="userSpaceOnUse" width="2.47" x="218.87" y="5.57">
     <g transform="translate(-1 -1)">
      <rect class="cls-1" height="20.6" width="2.47" x="219.87" y="6.57"/>
     </g>
    </mask>
    <mask height="20.6" id="svg_13" maskUnits="userSpaceOnUse" width="2.47" x="218.87" y="26.17">
     <g transform="translate(-1 -1)">
      <rect class="cls-2" height="20.6" width="2.47" x="219.87" y="27.17"/>
     </g>
    </mask>
    <clipPath id="svg_12" transform="translate(-1 -1)">
     <polygon class="cls-4" points="45.15 25.43 45.15 31.32 50.74 29.65 49.93 26.89 50.74 23.75 45.15 25.43"/>
    </clipPath>
    <clipPath id="svg_11" transform="translate(-1 -1)">
     <polygon class="cls-4" points="8.66 31.32 8.66 25.43 3.07 23.75 3.88 26.89 3.07 29.65 8.66 31.32"/>
    </clipPath>
    <clipPath id="svg_9" transform="translate(-1 -1)">
     <path class="cls-4" d="m5,26.54l0,5.9a62.66,62.66 0 0 0 7.83,2.11a57.71,57.71 0 0 0 7.83,0.87l0,-5.89a57.73,57.73 0 0 1 -7.83,-0.88a59.39,59.39 0 0 1 -7.83,-2.11"/>
    </clipPath>
    <clipPath id="svg_7" transform="translate(-1 -1)">
     <path class="cls-4" d="m48.83,32.44l0,-5.9a47.12,47.12 0 0 1 -7.83,2.32a43.06,43.06 0 0 1 -7.83,0.67l0,5.89a42.18,42.18 0 0 0 7.83,-0.67a48,48 0 0 0 7.83,-2.31"/>
    </clipPath>
    <clipPath id="svg_5" transform="translate(-1 -1)">
     <path class="cls-4" d="m18,30.58l0,5.92a34.28,34.28 0 0 0 9,1.37a34.29,34.29 0 0 0 9,-1.37l0,-5.92a36.83,36.83 0 0 1 -9,1.27a36.82,36.82 0 0 1 -9,-1.27"/>
    </clipPath>
   </defs>
   <title>Asset 1</title>
   <g data-name="Layer 2" id="svg_1">
    <g data-name="Layer 1" id="svg_2">
     <g class="cls-5">
      <polygon class="cls-6" points="323.78 38.7 235.74 38.7 235.73 39.57 323.76 39.61 323.78 38.7"/>
      <path class="cls-7" d="m254,45.28l-0.57,-1.52l-0.55,1.52l1.12,0zm1.52,1.62l-0.9,0l-0.35,-0.93l-1.64,0l-0.35,0.93l-0.87,0l1.59,-4.1l0.88,0l1.64,4.1z" transform="translate(-1 -1)"/>
      <path class="cls-7" d="m258.49,44.81l-0.77,0.14a0.62,0.62 0 0 0 -0.18,-0.35a0.57,0.57 0 0 0 -0.36,-0.11a0.59,0.59 0 0 0 -0.47,0.2a1.07,1.07 0 0 0 -0.17,0.68a1.21,1.21 0 0 0 0.18,0.75a0.59,0.59 0 0 0 0.47,0.22a0.57,0.57 0 0 0 0.37,-0.13a0.82,0.82 0 0 0 0.2,-0.44l0.77,0.13a1.38,1.38 0 0 1 -0.46,0.81a1.43,1.43 0 0 1 -0.91,0.27a1.37,1.37 0 0 1 -1,-0.41a1.61,1.61 0 0 1 -0.39,-1.14a1.59,1.59 0 0 1 0.39,-1.15a1.36,1.36 0 0 1 1.05,-0.41a1.46,1.46 0 0 1 0.86,0.23a1.25,1.25 0 0 1 0.46,0.71" transform="translate(-1 -1)"/>
      <path class="cls-7" d="m261.68,44.81l-0.78,0.14a0.56,0.56 0 0 0 -0.17,-0.35a0.59,0.59 0 0 0 -0.36,-0.11a0.57,0.57 0 0 0 -0.47,0.2a1,1 0 0 0 -0.18,0.68a1.21,1.21 0 0 0 0.18,0.75a0.61,0.61 0 0 0 0.48,0.22a0.53,0.53 0 0 0 0.36,-0.13a0.7,0.7 0 0 0 0.2,-0.44l0.78,0.13a1.26,1.26 0 0 1 -1.38,1.1a1.39,1.39 0 0 1 -1,-0.41a1.65,1.65 0 0 1 -0.38,-1.14a1.59,1.59 0 0 1 0.39,-1.15a1.33,1.33 0 0 1 1.05,-0.41a1.48,1.48 0 0 1 0.86,0.23a1.36,1.36 0 0 1 0.46,0.71" transform="translate(-1 -1)"/>
      <path class="cls-7" d="m263,46.9l-0.78,0l0,-3l0.78,0l0,0.42a1,1 0 0 1 0.34,-0.39a0.62,0.62 0 0 1 0.34,-0.09a1,1 0 0 1 0.51,0.15l-0.24,0.68a0.66,0.66 0 0 0 -0.37,-0.13a0.45,0.45 0 0 0 -0.28,0.09a0.57,0.57 0 0 0 -0.18,0.33a4.87,4.87 0 0 0 -0.07,1l-0.05,0.94z" transform="translate(-1 -1)"/>
      <path class="cls-7" d="m266.27,45.17a0.79,0.79 0 0 0 -0.18,-0.52a0.54,0.54 0 0 0 -0.41,-0.18a0.52,0.52 0 0 0 -0.42,0.19a0.68,0.68 0 0 0 -0.16,0.51l1.17,0zm0,0.79l0.78,0.14a1.27,1.27 0 0 1 -0.47,0.65a1.42,1.42 0 0 1 -0.82,0.23a1.31,1.31 0 0 1 -1.14,-0.51a1.68,1.68 0 0 1 -0.3,-1a1.62,1.62 0 0 1 0.39,-1.15a1.26,1.26 0 0 1 1,-0.42a1.3,1.3 0 0 1 1.05,0.44a2,2 0 0 1 0.37,1.34l-2,0a0.82,0.82 0 0 0 0.19,0.54a0.59,0.59 0 0 0 0.45,0.2a0.52,0.52 0 0 0 0.31,-0.1a0.66,0.66 0 0 0 0.14,-0.32l0.05,-0.04z" transform="translate(-1 -1)"/>
      <path class="cls-7" d="m268.32,45.36a1.33,1.33 0 0 0 0.13,0.69a0.59,0.59 0 0 0 0.53,0.31a0.59,0.59 0 0 0 0.46,-0.23a1.08,1.08 0 0 0 0.19,-0.7a1.15,1.15 0 0 0 -0.19,-0.74a0.6,0.6 0 0 0 -0.93,0a1,1 0 0 0 -0.19,0.67m2.09,1.54l-0.72,0l0,-0.43a1.39,1.39 0 0 1 -0.43,0.38a1.2,1.2 0 0 1 -0.5,0.13a1.11,1.11 0 0 1 -0.88,-0.42a2,2 0 0 1 0,-2.3a1.14,1.14 0 0 1 0.9,-0.39a1.12,1.12 0 0 1 0.86,0.41l0,-1.48l0.78,0l-0.01,4.1z" transform="translate(-1 -1)"/>
      <path class="cls-7" d="m271.19,46.9l0,-3l0.81,0l0,3l-0.81,0zm0,-3.37l0,-0.73l0.81,0l0,0.73l-0.81,0z" transform="translate(-1 -1)"/>
      <path class="cls-7" d="m274.13,43.93l0,0.62l-0.53,0l0,1.21a3.48,3.48 0 0 0 0,0.42a0.14,0.14 0 0 0 0.07,0.1a0.2,0.2 0 0 0 0.13,0a1,1 0 0 0 0.32,-0.07l0.07,0.61a1.56,1.56 0 0 1 -0.62,0.12a1.12,1.12 0 0 1 -0.38,-0.07a0.5,0.5 0 0 1 -0.25,-0.19a0.67,0.67 0 0 1 -0.11,-0.31a3.12,3.12 0 0 1 0,-0.55l0,-1.27l-0.36,0l0,-0.62l0.36,0l0,-0.59l0.79,-0.46l0,1l0.51,0.05z" transform="translate(-1 -1)"/>
      <path class="cls-7" d="m276.45,45.17a0.79,0.79 0 0 0 -0.18,-0.52a0.54,0.54 0 0 0 -0.41,-0.18a0.52,0.52 0 0 0 -0.42,0.19a0.68,0.68 0 0 0 -0.16,0.51l1.17,0zm-0.05,0.79l0.79,0.14a1.28,1.28 0 0 1 -0.48,0.65a1.42,1.42 0 0 1 -0.82,0.23a1.32,1.32 0 0 1 -1.14,-0.51a1.68,1.68 0 0 1 -0.3,-1a1.62,1.62 0 0 1 0.39,-1.15a1.27,1.27 0 0 1 1,-0.42a1.29,1.29 0 0 1 1,0.44a1.92,1.92 0 0 1 0.37,1.34l-2,0a0.82,0.82 0 0 0 0.19,0.54a0.59,0.59 0 0 0 0.45,0.2a0.5,0.5 0 0 0 0.31,-0.1a0.59,0.59 0 0 0 0.24,-0.32l0,-0.04z" transform="translate(-1 -1)"/>
      <path class="cls-7" d="m278.5,45.36a1.33,1.33 0 0 0 0.13,0.69a0.59,0.59 0 0 0 0.53,0.31a0.59,0.59 0 0 0 0.46,-0.23a1.08,1.08 0 0 0 0.19,-0.7a1.22,1.22 0 0 0 -0.18,-0.74a0.59,0.59 0 0 0 -0.48,-0.22a0.57,0.57 0 0 0 -0.46,0.22a1,1 0 0 0 -0.19,0.67m2.09,1.54l-0.72,0l0,-0.43a1.29,1.29 0 0 1 -0.43,0.38a1.2,1.2 0 0 1 -0.5,0.13a1.11,1.11 0 0 1 -0.88,-0.42a2,2 0 0 1 0,-2.3a1.14,1.14 0 0 1 0.9,-0.39a1.12,1.12 0 0 1 0.86,0.41l0,-1.48l0.78,0l-0.01,4.1z" transform="translate(-1 -1)"/>
      <path class="cls-7" d="m283,42.8l0.83,0l0,2.2a4.69,4.69 0 0 0 0,0.69a0.67,0.67 0 0 0 0.25,0.4a0.86,0.86 0 0 0 0.55,0.16a0.79,0.79 0 0 0 0.52,-0.15a0.52,0.52 0 0 0 0.21,-0.35a3.86,3.86 0 0 0 0,-0.7l0,-2.25l0.83,0l0,2.2a5,5 0 0 1 -0.07,1a1.09,1.09 0 0 1 -0.24,0.52a1.21,1.21 0 0 1 -0.48,0.33a2.17,2.17 0 0 1 -0.79,0.13a2.26,2.26 0 0 1 -0.89,-0.14a1.36,1.36 0 0 1 -0.48,-0.35a1.33,1.33 0 0 1 -0.24,-0.49a5.25,5.25 0 0 1 -0.08,-1l0.08,-2.2z" transform="translate(-1 -1)"/>
      <path class="cls-7" d="m289.8,46.9l-0.8,0l0,-1.51a2.48,2.48 0 0 0 -0.05,-0.62a0.41,0.41 0 0 0 -0.16,-0.22a0.44,0.44 0 0 0 -0.28,-0.08a0.67,0.67 0 0 0 -0.37,0.11a0.55,0.55 0 0 0 -0.22,0.3a2.54,2.54 0 0 0 -0.06,0.68l0,1.34l-0.79,0l0,-3l0.73,0l0,0.44a1.18,1.18 0 0 1 1,-0.5a1.21,1.21 0 0 1 0.48,0.09a0.83,0.83 0 0 1 0.33,0.24a1,1 0 0 1 0.15,0.33a2.3,2.3 0 0 1 0.05,0.53l-0.01,1.87z" transform="translate(-1 -1)"/>
      <path class="cls-7" d="m290.59,46.9l0,-3l0.78,0l0,3l-0.78,0zm0,-3.37l0,-0.73l0.78,0l0,0.73l-0.78,0z" transform="translate(-1 -1)"/>
      <path class="cls-7" d="m293,46.9l-1.2,-3l0.83,0l0.55,1.52l0.17,0.5l0.08,-0.25a2.41,2.41 0 0 1 0.08,-0.25l0.57,-1.52l0.81,0l-1.18,3l-0.71,0z" transform="translate(-1 -1)"/>
      <path class="cls-7" d="m297.13,45.17a0.74,0.74 0 0 0 -0.18,-0.52a0.52,0.52 0 0 0 -0.4,-0.18a0.54,0.54 0 0 0 -0.43,0.19a0.73,0.73 0 0 0 -0.16,0.51l1.17,0zm-0.05,0.79l0.79,0.14a1.28,1.28 0 0 1 -0.48,0.65a1.41,1.41 0 0 1 -0.81,0.23a1.33,1.33 0 0 1 -1.15,-0.51a1.74,1.74 0 0 1 -0.29,-1a1.66,1.66 0 0 1 0.38,-1.15a1.4,1.4 0 0 1 2,0a1.92,1.92 0 0 1 0.37,1.34l-2,0a0.82,0.82 0 0 0 0.19,0.54a0.61,0.61 0 0 0 0.45,0.2a0.5,0.5 0 0 0 0.31,-0.1a0.59,0.59 0 0 0 0.24,-0.3l0,-0.04z" transform="translate(-1 -1)"/>
      <path class="cls-7" d="m299.3,46.9l-0.78,0l0,-3l0.72,0l0,0.42a1.26,1.26 0 0 1 0.34,-0.39a0.67,0.67 0 0 1 0.34,-0.09a1,1 0 0 1 0.52,0.15l-0.24,0.68a0.69,0.69 0 0 0 -0.37,-0.13a0.43,0.43 0 0 0 -0.28,0.09a0.57,0.57 0 0 0 -0.18,0.33a4.22,4.22 0 0 0 -0.07,1l0,0.94z" transform="translate(-1 -1)"/>
      <path class="cls-7" d="m300.5,46.07l0.79,-0.12a0.56,0.56 0 0 0 0.2,0.34a0.71,0.71 0 0 0 0.43,0.12a0.8,0.8 0 0 0 0.46,-0.11a0.25,0.25 0 0 0 0.11,-0.21a0.2,0.2 0 0 0 -0.06,-0.15a0.6,0.6 0 0 0 -0.26,-0.1a4,4 0 0 1 -1.21,-0.39a0.75,0.75 0 0 1 -0.35,-0.67a0.83,0.83 0 0 1 0.3,-0.65a1.48,1.48 0 0 1 0.95,-0.26a1.56,1.56 0 0 1 0.9,0.2a1,1 0 0 1 0.41,0.59l-0.74,0.14a0.44,0.44 0 0 0 -0.18,-0.27a0.66,0.66 0 0 0 -0.38,-0.1a0.87,0.87 0 0 0 -0.45,0.09a0.19,0.19 0 0 0 -0.09,0.16a0.17,0.17 0 0 0 0.08,0.14a2.72,2.72 0 0 0 0.74,0.23a2.12,2.12 0 0 1 0.88,0.35a0.72,0.72 0 0 1 0.25,0.58a0.89,0.89 0 0 1 -0.35,0.7a1.47,1.47 0 0 1 -1,0.3a1.71,1.71 0 0 1 -1,-0.25a1.12,1.12 0 0 1 -0.46,-0.66" transform="translate(-1 -1)"/>
      <path class="cls-7" d="m304,46.9l0,-3l0.79,0l0,3l-0.79,0zm0,-3.37l0,-0.73l0.79,0l0,0.73l-0.79,0z" transform="translate(-1 -1)"/>
      <path class="cls-7" d="m306.91,43.93l0,0.62l-0.54,0l0,1.21a2.64,2.64 0 0 0 0,0.42a0.14,0.14 0 0 0 0.07,0.1a0.2,0.2 0 0 0 0.13,0a1,1 0 0 0 0.32,-0.07l0.07,0.61a1.56,1.56 0 0 1 -0.62,0.12a1.18,1.18 0 0 1 -0.39,-0.07a0.52,0.52 0 0 1 -0.24,-0.19a0.8,0.8 0 0 1 -0.12,-0.31c0,-0.09 0,-0.27 0,-0.55l0,-1.27l-0.36,0l0,-0.62l0.36,0l0,-0.59l0.78,-0.46l0,1l0.54,0.05z" transform="translate(-1 -1)"/>
      <path class="cls-7" d="m307.08,43.93l0.84,0l0.71,2.11l0.7,-2.11l0.81,0l-1.05,2.86l-0.18,0.52a2.29,2.29 0 0 1 -0.2,0.39a0.92,0.92 0 0 1 -0.22,0.22a0.83,0.83 0 0 1 -0.3,0.14a1.62,1.62 0 0 1 -0.4,0a2.3,2.3 0 0 1 -0.45,0l-0.07,-0.62a1.48,1.48 0 0 0 0.34,0a0.47,0.47 0 0 0 0.4,-0.16a1.22,1.22 0 0 0 0.21,-0.41l-1.14,-2.94z" transform="translate(-1 -1)"/>
      <path class="cls-8" d="m300.49,25.9l7.36,0c0,-0.44 -3.62,-11 -3.72,-11.08c-0.51,1.31 -3.65,10.93 -3.64,11.07m-11.57,11.11l7.56,0l2,-5.33l11.36,0l2,5.33l7.65,0l-11,-30.42l-7.74,0l-11.83,30.42z" transform="translate(-1 -1)"/>
      <polygon class="cls-8" points="316.28 17.19 318.72 17.23 318.74 5.58 316.31 5.54 316.28 17.19"/>
      <polygon class="cls-8" points="311.7 10.15 311.66 12.6 323.31 12.62 323.35 10.19 311.7 10.15"/>
      <path class="cls-7" d="m237.57,22.55a0.25,0.25 0 0 1 -0.18,-0.08a0.28,0.28 0 0 1 -0.08,-0.2l0,-15.57a0.28,0.28 0 0 1 0.08,-0.2a0.25,0.25 0 0 1 0.18,-0.08l2.55,0a0.31,0.31 0 0 1 0.3,0.21l4.14,9.19s0.06,0.07 0.09,0.06s0,0 0,-0.1l0,-9.08a0.28,0.28 0 0 1 0.08,-0.2a0.25,0.25 0 0 1 0.18,-0.08l2.5,0a0.26,0.26 0 0 1 0.19,0.08a0.27,0.27 0 0 1 0.07,0.2l0,15.57a0.27,0.27 0 0 1 -0.07,0.2a0.26,0.26 0 0 1 -0.19,0.08l-2.56,0a0.35,0.35 0 0 1 -0.31,-0.21l-4.14,-9.26q0,-0.08 -0.09,-0.06s0,0 0,0.1l0,9.15a0.27,0.27 0 0 1 -0.07,0.2a0.26,0.26 0 0 1 -0.19,0.08l-2.48,0z" transform="translate(-1 -1)"/>
      <path class="cls-7" d="m253.61,17.32c0,0.05 0,0.08 0,0.1a0.12,0.12 0 0 0 0.09,0l2.84,0a0.12,0.12 0 0 0 0.09,0s0,-0.05 0,-0.1l-1.44,-6.55c0,-0.06 0,-0.08 -0.07,-0.08a0.1,0.1 0 0 0 -0.06,0.08l-1.45,6.55zm4.39,5.23a0.28,0.28 0 0 1 -0.28,-0.23l-0.49,-2.26a0.11,0.11 0 0 0 -0.11,-0.09l-4,0c-0.06,0 -0.09,0 -0.11,0.09l-0.49,2.26a0.3,0.3 0 0 1 -0.31,0.23l-2.61,0c-0.18,0 -0.26,-0.1 -0.21,-0.3l3.88,-15.6a0.3,0.3 0 0 1 0.3,-0.23l3.13,0a0.3,0.3 0 0 1 0.31,0.23l3.9,15.6l0,0.09c0,0.14 -0.07,0.21 -0.23,0.21l-2.68,0z" transform="translate(-1 -1)"/>
      <path class="cls-7" d="m266.26,17.32c0,0.05 0,0.08 0,0.1a0.1,0.1 0 0 0 0.08,0l2.85,0a0.12,0.12 0 0 0 0.09,0s0,-0.05 0,-0.1l-1.45,-6.55c0,-0.06 0,-0.08 -0.06,-0.08a0.1,0.1 0 0 0 -0.06,0.08l-1.45,6.55zm4.42,5.23a0.28,0.28 0 0 1 -0.28,-0.23l-0.5,-2.26a0.1,0.1 0 0 0 -0.1,-0.09l-4,0c-0.06,0 -0.09,0 -0.11,0.09l-0.5,2.26a0.28,0.28 0 0 1 -0.3,0.23l-2.61,0q-0.28,0 -0.21,-0.3l3.88,-15.6a0.28,0.28 0 0 1 0.3,-0.23l3.13,0a0.28,0.28 0 0 1 0.3,0.23l3.91,15.6l0,0.09c0,0.14 -0.08,0.21 -0.23,0.21l-2.68,0z" transform="translate(-1 -1)"/>
      <path class="cls-7" d="m279.94,22.73a5.2,5.2 0 0 1 -2.59,-0.62a4.24,4.24 0 0 1 -1.74,-1.77a5.61,5.61 0 0 1 -0.61,-2.68l0,-6.4a5.47,5.47 0 0 1 0.61,-2.64a4.28,4.28 0 0 1 1.74,-1.76a5.2,5.2 0 0 1 2.59,-0.63a5.41,5.41 0 0 1 2.59,0.61a4.3,4.3 0 0 1 1.74,1.72a5.24,5.24 0 0 1 0.61,2.58l0,0.12a0.35,0.35 0 0 1 -0.07,0.21a0.23,0.23 0 0 1 -0.19,0.09l-2.52,0.11c-0.17,0 -0.26,-0.08 -0.26,-0.25l0,-0.3a2.16,2.16 0 0 0 -0.52,-1.52a1.93,1.93 0 0 0 -2.76,0a2.16,2.16 0 0 0 -0.52,1.52l0,6.75a2.12,2.12 0 0 0 0.52,1.51a2,2 0 0 0 2.76,0a2.12,2.12 0 0 0 0.52,-1.51l0,-0.3c0,-0.17 0.09,-0.25 0.26,-0.25l2.52,0.11c0.18,0 0.26,0.06 0.26,0.17l0,0.18a5.34,5.34 0 0 1 -0.61,2.6a4.17,4.17 0 0 1 -1.74,1.74a5.3,5.3 0 0 1 -2.59,0.61" transform="translate(-1 -1)"/>
      <path class="cls-7" d="m241.29,37.31a4.6,4.6 0 0 1 -2.17,-0.49a3.47,3.47 0 0 1 -1.46,-1.38a4.13,4.13 0 0 1 -0.51,-2.07l0,-5.08a4,4 0 0 1 0.51,-2.06a3.6,3.6 0 0 1 1.46,-1.38a5.07,5.07 0 0 1 4.33,0a3.51,3.51 0 0 1 1.46,1.34a3.65,3.65 0 0 1 0.52,1.95l0,0.39a0.21,0.21 0 0 1 -0.22,0.22l-2.11,0a0.21,0.21 0 0 1 -0.22,-0.22l0,-0.38a1.6,1.6 0 0 0 -0.43,-1.14a1.71,1.71 0 0 0 -2.33,0a1.76,1.76 0 0 0 -0.44,1.23l0,5.17a1.66,1.66 0 0 0 0.46,1.23a1.59,1.59 0 0 0 1.2,0.47a1.57,1.57 0 0 0 1.13,-0.41a1.51,1.51 0 0 0 0.43,-1.14l0,-1.11a0.08,0.08 0 0 0 -0.09,-0.09l-1.41,0a0.21,0.21 0 0 1 -0.16,-0.07a0.2,0.2 0 0 1 -0.06,-0.15l0,-1.65a0.2,0.2 0 0 1 0.06,-0.15a0.25,0.25 0 0 1 0.16,-0.06l3.81,0a0.25,0.25 0 0 1 0.16,0.06a0.2,0.2 0 0 1 0.06,0.15l0,2.88a3.77,3.77 0 0 1 -1.13,2.87a4.21,4.21 0 0 1 -3,1.07" transform="translate(-1 -1)"/>
      <path class="cls-7" d="m249.68,26.7a0.08,0.08 0 0 0 -0.09,0.09l0,3.07a0.08,0.08 0 0 0 0.09,0.09l1.57,0a1.45,1.45 0 0 0 1.09,-0.44a1.69,1.69 0 0 0 0.41,-1.17a1.73,1.73 0 0 0 -0.41,-1.2a1.41,1.41 0 0 0 -1.09,-0.44l-1.57,0zm3.32,10.47a0.25,0.25 0 0 1 -0.26,-0.18l-1.82,-5s-0.06,-0.07 -0.09,-0.07l-1.14,0a0.08,0.08 0 0 0 -0.09,0.09l0,4.99a0.2,0.2 0 0 1 -0.06,0.15a0.26,0.26 0 0 1 -0.16,0.07l-2.11,0a0.24,0.24 0 0 1 -0.16,-0.07a0.2,0.2 0 0 1 -0.11,-0.15l0,-12.29a0.25,0.25 0 0 1 0.06,-0.16a0.23,0.23 0 0 1 0.16,-0.06l4.41,0a3.75,3.75 0 0 1 1.9,0.48a3.27,3.27 0 0 1 1.28,1.35a4.26,4.26 0 0 1 0.45,2a3.85,3.85 0 0 1 -0.51,2a3.25,3.25 0 0 1 -1.44,1.28s-0.06,0.06 0,0.12l2.06,5.19a0.15,0.15 0 0 1 0,0.09c0,0.11 -0.06,0.17 -0.2,0.17l-2.17,0z" transform="translate(-1 -1)"/>
      <path class="cls-7" d="m259.91,33.06a0.07,0.07 0 0 0 0,0.08l0.07,0l2.39,0a0.11,0.11 0 0 0 0.07,0s0,0 0,-0.08l-1.21,-5.13c0,-0.05 0,-0.07 -0.06,-0.07a0.1,0.1 0 0 0 0,0.07l-1.26,5.13zm3.71,4.11a0.24,0.24 0 0 1 -0.24,-0.18l-0.38,-1.78a0.08,0.08 0 0 0 -0.09,-0.07l-3.41,0a0.08,0.08 0 0 0 -0.09,0.07l-0.41,1.79a0.24,0.24 0 0 1 -0.25,0.18l-2.19,0q-0.24,0 -0.18,-0.24l3.25,-12.24a0.24,0.24 0 0 1 0.26,-0.18l2.62,0a0.23,0.23 0 0 1 0.25,0.18l3.24,12.23l0,0.07c0,0.11 -0.06,0.17 -0.2,0.17l-2.18,0z" transform="translate(-1 -1)"/>
      <path class="cls-7" d="m270,34.89a0.08,0.08 0 0 0 0.09,0.09l1.49,0a1.37,1.37 0 0 0 1.08,-0.48a1.91,1.91 0 0 0 0.43,-1.27l0,-4.76a1.89,1.89 0 0 0 -0.41,-1.29a1.4,1.4 0 0 0 -1.1,-0.48l-1.49,0a0.08,0.08 0 0 0 -0.09,0.09l0,8.1zm-2.33,2.28a0.21,0.21 0 0 1 -0.15,-0.07a0.18,0.18 0 0 1 -0.07,-0.15l0,-12.22a0.2,0.2 0 0 1 0.07,-0.16a0.2,0.2 0 0 1 0.15,-0.06l3.89,0a4.88,4.88 0 0 1 2.14,0.45a3.35,3.35 0 0 1 1.44,1.29a3.67,3.67 0 0 1 0.5,1.93l0,5.32a3.7,3.7 0 0 1 -0.5,1.93a3.39,3.39 0 0 1 -1.44,1.28a4.74,4.74 0 0 1 -2.14,0.46l-3.89,0z" transform="translate(-1 -1)"/>
      <path class="cls-7" d="m285.05,26.48a0.21,0.21 0 0 1 -0.07,0.15a0.18,0.18 0 0 1 -0.15,0.07l-4.83,0a0.08,0.08 0 0 0 -0.09,0.09l0,2.82a0.08,0.08 0 0 0 0.09,0.09l3,0a0.25,0.25 0 0 1 0.16,0.06a0.23,0.23 0 0 1 0.06,0.16l0,1.75a0.2,0.2 0 0 1 -0.06,0.15a0.21,0.21 0 0 1 -0.16,0.07l-3,0a0.08,0.08 0 0 0 -0.09,0.09l0,2.91a0.08,0.08 0 0 0 0.09,0.11l4.85,0a0.2,0.2 0 0 1 0.15,0a0.21,0.21 0 0 1 0.07,0.15l0,1.85a0.24,0.24 0 0 1 -0.22,0.22l-7.27,0a0.21,0.21 0 0 1 -0.15,-0.07a0.18,0.18 0 0 1 -0.07,-0.15l0,-12.27a0.2,0.2 0 0 1 0.07,-0.16a0.2,0.2 0 0 1 0.15,-0.06l7.27,0a0.2,0.2 0 0 1 0.15,0.06a0.24,0.24 0 0 1 0.07,0.16l-0.02,1.75z" transform="translate(-1 -1)"/>
      <g class="cls-9">
       <rect class="cls-10" height="20.6" width="2.47" x="218.87" y="5.57"/>
      </g>
      <g class="cls-11">
       <rect class="cls-10" height="20.6" width="2.47" x="218.87" y="26.17"/>
      </g>
      <path class="cls-12" d="m168.1,37.87l0,0.29a1.69,1.69 0 0 0 -0.87,0.33a9.09,9.09 0 0 0 -1.32,1.92l-2.47,4.14l0,2.75a3.85,3.85 0 0 0 0.09,1.1a0.84,0.84 0 0 0 0.37,0.38a1.37,1.37 0 0 0 0.72,0.17l0.64,0l0,0.29l-6.36,0l0,-0.24l0.59,0a1.49,1.49 0 0 0 0.79,-0.18a0.78,0.78 0 0 0 0.34,-0.41a3.55,3.55 0 0 0 0.09,-1.06l0,-2.35l-2.71,-4.87a7.42,7.42 0 0 0 -1.12,-1.71a1.4,1.4 0 0 0 -0.88,-0.26l0,-0.29l5.45,0l0,0.29l-0.24,0a1.34,1.34 0 0 0 -0.7,0.14a0.4,0.4 0 0 0 -0.19,0.31a5.09,5.09 0 0 0 0.67,1.54l2.06,3.75l2,-3.42a4.57,4.57 0 0 0 0.76,-1.69a0.44,0.44 0 0 0 -0.22,-0.38a2,2 0 0 0 -1,-0.25l0,-0.29l3.51,0zm-12.82,0l0,3.07l-0.28,0a4.82,4.82 0 0 0 -0.6,-1.53a2.28,2.28 0 0 0 -0.9,-0.74a2.85,2.85 0 0 0 -1.11,-0.15l-0.86,0l0,8.78a3.9,3.9 0 0 0 0.09,1.1a0.92,0.92 0 0 0 0.38,0.38a1.44,1.44 0 0 0 0.75,0.17l0.38,0l0,0.29l-5.93,0l0,-0.24l0.37,0a1.52,1.52 0 0 0 0.79,-0.18a0.83,0.83 0 0 0 0.34,-0.41a3.55,3.55 0 0 0 0.09,-1.06l0,-8.83l-0.79,0a2.4,2.4 0 0 0 -1.66,0.48a3.25,3.25 0 0 0 -0.91,1.94l-0.33,0l0,-3.07l10.18,0zm-11.28,11.13l0,0.29l-5.92,0l0,-0.29l0.38,0a1.54,1.54 0 0 0 0.79,-0.18a0.73,0.73 0 0 0 0.33,-0.41a3.41,3.41 0 0 0 0.1,-1.06l0,-7.55a3.67,3.67 0 0 0 -0.1,-1.09a0.81,0.81 0 0 0 -0.37,-0.39a1.44,1.44 0 0 0 -0.75,-0.16l-0.38,0l0,-0.29l5.92,0l0,0.29l-0.38,0a1.61,1.61 0 0 0 -0.78,0.17a0.78,0.78 0 0 0 -0.34,0.41a3.41,3.41 0 0 0 -0.1,1.06l0,7.5a3.75,3.75 0 0 0 0.1,1.1a0.89,0.89 0 0 0 0.37,0.38a1.49,1.49 0 0 0 0.75,0.17l0.38,0.05zm-7.7,-11.39l0.09,3.79l-0.39,0a3.88,3.88 0 0 0 -1.19,-2.29a3,3 0 0 0 -2.06,-0.87a1.9,1.9 0 0 0 -1.36,0.46a1.38,1.38 0 0 0 -0.5,1a1.27,1.27 0 0 0 0.18,0.67a2.87,2.87 0 0 0 0.78,0.78a18.4,18.4 0 0 0 1.82,1a8,8 0 0 1 2.73,1.85a3.11,3.11 0 0 1 0.69,2a3.22,3.22 0 0 1 -1.09,2.47a4,4 0 0 1 -2.82,1a4.76,4.76 0 0 1 -1,-0.11a6.72,6.72 0 0 1 -1.2,-0.42a1.83,1.83 0 0 0 -0.66,-0.16a0.82,0.82 0 0 0 -0.46,0.17a1.09,1.09 0 0 0 -0.4,0.52l-0.29,0l0,-4.26l0.29,0a4.93,4.93 0 0 0 1.38,2.79a3.37,3.37 0 0 0 2.27,0.95a2.13,2.13 0 0 0 1.5,-0.51a1.57,1.57 0 0 0 0.56,-1.19a1.51,1.51 0 0 0 -0.22,-0.78a2.25,2.25 0 0 0 -0.65,-0.71a9.78,9.78 0 0 0 -1.54,-0.89a12.65,12.65 0 0 1 -2.23,-1.3a4,4 0 0 1 -1,-1.19a3,3 0 0 1 -0.36,-1.46a3.08,3.08 0 0 1 1,-2.32a3.5,3.5 0 0 1 2.51,-1a4.18,4.18 0 0 1 1.07,0.13a5.25,5.25 0 0 1 1,0.37a2.26,2.26 0 0 0 0.8,0.27a0.44,0.44 0 0 0 0.34,-0.13a1.62,1.62 0 0 0 0.23,-0.64l0.18,0.01zm-15.89,0.89l0,5l0.48,0a5.48,5.48 0 0 0 1.75,-0.21a1.8,1.8 0 0 0 0.91,-0.77a2.83,2.83 0 0 0 0.33,-1.45a2.61,2.61 0 0 0 -0.61,-1.91a2.68,2.68 0 0 0 -2,-0.62l-0.86,-0.04zm0,5.56l0,3.21a3.23,3.23 0 0 0 0.12,1.15a0.78,0.78 0 0 0 0.4,0.38a2.53,2.53 0 0 0 1.07,0.2l0,0.29l-5.81,0l0,-0.29a2.59,2.59 0 0 0 1.07,-0.15a0.9,0.9 0 0 0 0.39,-0.38a3.36,3.36 0 0 0 0.11,-1.15l0,-7.48a3.4,3.4 0 0 0 -0.11,-1.16a0.78,0.78 0 0 0 -0.4,-0.38a2.76,2.76 0 0 0 -1.06,-0.14l0,-0.29l5.28,0a11.63,11.63 0 0 1 3,0.28a3.06,3.06 0 0 1 1.53,1.06a2.83,2.83 0 0 1 0.6,1.8a2.69,2.69 0 0 1 -0.91,2.08a3.61,3.61 0 0 1 -1.62,0.78l2.73,3.85a6,6 0 0 0 0.77,0.93a1.43,1.43 0 0 0 0.8,0.28l0,0.31l-3.58,0l-3.67,-5.18l-0.71,0zm-11.34,-5.54l0,4.63l0.23,0a1.8,1.8 0 0 0 1.57,-0.68a4.11,4.11 0 0 0 0.62,-2l0.33,0l0,6l-0.33,0a4.43,4.43 0 0 0 -0.42,-1.59a1.87,1.87 0 0 0 -0.75,-0.83a2.77,2.77 0 0 0 -1.25,-0.22l0,3.17a4.1,4.1 0 0 0 0.09,1.15a0.68,0.68 0 0 0 0.29,0.34a1.42,1.42 0 0 0 0.71,0.13l0.68,0a3.65,3.65 0 0 0 3.93,-3l0.31,0l-0.51,3.61l-9.82,0l0,-0.23l0.38,0a1.52,1.52 0 0 0 0.79,-0.18a0.78,0.78 0 0 0 0.34,-0.41a3.55,3.55 0 0 0 0.09,-1.06l0,-7.55a5.43,5.43 0 0 0 0,-0.95a0.78,0.78 0 0 0 -0.3,-0.46a1.5,1.5 0 0 0 -0.87,-0.23l-0.38,0l0,-0.29l9.51,0l0,3.36l-0.33,0a4,4 0 0 0 -0.68,-1.77a2.49,2.49 0 0 0 -1.24,-0.79a6.67,6.67 0 0 0 -1.75,-0.15l-1.24,0zm-4.84,-0.65l0,0.29a1.88,1.88 0 0 0 -1.11,0.66a10.86,10.86 0 0 0 -1.05,2l-3.89,8.7l-0.28,0l-3.87,-9a12.34,12.34 0 0 0 -0.94,-1.93a1.38,1.38 0 0 0 -0.91,-0.36l0,-0.29l5.43,0l0,0.29l-0.19,0a1.8,1.8 0 0 0 -1,0.19a0.4,0.4 0 0 0 -0.2,0.37a1.08,1.08 0 0 0 0.07,0.36c0,0.14 0.2,0.51 0.45,1.12l2.43,5.65l2.23,-5c0.27,-0.62 0.44,-1 0.5,-1.24a2,2 0 0 0 0.09,-0.53a0.77,0.77 0 0 0 -0.13,-0.45a0.83,0.83 0 0 0 -0.4,-0.3a2.72,2.72 0 0 0 -0.95,-0.14l0,-0.29l3.72,-0.1zm-12.62,11.13l0,0.29l-5.92,0l0,-0.29l0.37,0a1.55,1.55 0 0 0 0.8,-0.18a0.77,0.77 0 0 0 0.33,-0.41a3.55,3.55 0 0 0 0.09,-1.06l0,-7.55a3.81,3.81 0 0 0 -0.09,-1.09a0.81,0.81 0 0 0 -0.37,-0.39a1.48,1.48 0 0 0 -0.76,-0.16l-0.37,0l0,-0.29l5.92,0l0,0.29l-0.38,0a1.65,1.65 0 0 0 -0.79,0.17a0.89,0.89 0 0 0 -0.34,0.41a3.55,3.55 0 0 0 -0.1,1.06l0,7.5a3.42,3.42 0 0 0 0.1,1.1a0.84,0.84 0 0 0 0.37,0.38a1.49,1.49 0 0 0 0.75,0.17l0.39,0.05zm-14.39,-11.13l5.6,7l0,-4.87a2.4,2.4 0 0 0 -0.29,-1.4a1.61,1.61 0 0 0 -1.35,-0.47l0,-0.29l3.75,0l0,0.29a2.82,2.82 0 0 0 -1,0.24a1,1 0 0 0 -0.38,0.48a3.14,3.14 0 0 0 -0.11,1.15l0,9.5l-0.28,0l-7.68,-9.5l0,7.26a1.61,1.61 0 0 0 0.45,1.33a1.67,1.67 0 0 0 1.07,0.41l0.27,0l0,0.29l-4,0l0,-0.29a1.41,1.41 0 0 0 1.68,-1.68l0,-8.1l-0.23,-0.29a2.32,2.32 0 0 0 -0.64,-0.61a1.81,1.81 0 0 0 -0.8,-0.16l0,-0.29l3.94,0zm-16.22,0l5.86,0l0,0.29l-0.29,0a1.91,1.91 0 0 0 -0.91,0.14a0.78,0.78 0 0 0 -0.36,0.38a4.21,4.21 0 0 0 -0.1,1.23l0,5.56a5.75,5.75 0 0 0 0.23,2a1.89,1.89 0 0 0 0.75,0.82a2.51,2.51 0 0 0 1.34,0.33a2.85,2.85 0 0 0 1.57,-0.42a2.52,2.52 0 0 0 1,-1.14a7.09,7.09 0 0 0 0.32,-2.54l0,-4.61a2.82,2.82 0 0 0 -0.16,-1.1a1,1 0 0 0 -0.4,-0.46a2.41,2.41 0 0 0 -1.07,-0.19l0,-0.29l3.93,0l0,0.29l-0.24,0a1.49,1.49 0 0 0 -0.79,0.19a1.08,1.08 0 0 0 -0.46,0.58a3.06,3.06 0 0 0 -0.11,1l0,4.31a11.49,11.49 0 0 1 -0.26,2.89a3.23,3.23 0 0 1 -1.28,1.64a4.64,4.64 0 0 1 -2.79,0.75a5.33,5.33 0 0 1 -2.28,-0.4a3.35,3.35 0 0 1 -1.55,-1.37a4.8,4.8 0 0 1 -0.45,-2.26l0,-5.58a4.08,4.08 0 0 0 -0.11,-1.23a0.82,0.82 0 0 0 -0.37,-0.39a2.35,2.35 0 0 0 -1,-0.13l-0.02,-0.29zm144.51,-9l-0.43,4l-10.08,0l0,-0.29l0.38,0a1.52,1.52 0 0 0 0.79,-0.18a0.75,0.75 0 0 0 0.34,-0.41a3.5,3.5 0 0 0 0.09,-1.06l0,-7.53a3.81,3.81 0 0 0 -0.09,-1.09a0.91,0.91 0 0 0 -0.37,-0.39a1.51,1.51 0 0 0 -0.76,-0.16l-0.38,0l0,-0.29l6,0l0,0.29l-0.5,0a1.58,1.58 0 0 0 -0.8,0.18a0.8,0.8 0 0 0 -0.34,0.4a3.59,3.59 0 0 0 -0.09,1.06l0,7.26a3.58,3.58 0 0 0 0.1,1.11a0.64,0.64 0 0 0 0.39,0.36a4.1,4.1 0 0 0 1,0.07l0.94,0a3.21,3.21 0 0 0 1.5,-0.31a2.78,2.78 0 0 0 1,-1a8,8 0 0 0 0.83,-2l0.48,-0.02zm-16.41,0.13l-1.69,-3.87l-1.74,3.87l3.43,0zm0.27,0.62l-4,0l-0.49,1.11a2.41,2.41 0 0 0 -0.23,0.92a0.76,0.76 0 0 0 0.38,0.71a3.26,3.26 0 0 0 1.11,0.21l0,0.29l-3.77,0l0,-0.29a1.78,1.78 0 0 0 1,-0.51a6.76,6.76 0 0 0 1,-1.74l4.06,-9.06l0.16,0l4.1,9.31a5.68,5.68 0 0 0 1,1.69a1.3,1.3 0 0 0 0.81,0.31l0,0.29l-5.5,0l0,-0.29l0.23,0a1.75,1.75 0 0 0 0.93,-0.19a0.46,0.46 0 0 0 0.18,-0.39a0.93,0.93 0 0 0 0,-0.32a6.76,6.76 0 0 0 -0.34,-0.67l-0.63,-1.38zm-15.24,-8.13l5.6,7l0,-4.86a2.33,2.33 0 0 0 -0.3,-1.4a1.6,1.6 0 0 0 -1.35,-0.47l0,-0.29l3.76,0l0,0.29a2.82,2.82 0 0 0 -1,0.24a1.06,1.06 0 0 0 -0.39,0.48a3.44,3.44 0 0 0 -0.13,1.15l0,9.47l-0.29,0l-7.67,-9.48l0,7.25a1.61,1.61 0 0 0 0.45,1.33a1.64,1.64 0 0 0 1,0.35l0.27,0l0,0.29l-4,0l0,-0.29a1.86,1.86 0 0 0 1.31,-0.39a1.81,1.81 0 0 0 0.37,-1.29l0,-8l-0.24,-0.29a2.31,2.31 0 0 0 -0.63,-0.61a1.85,1.85 0 0 0 -0.8,-0.16l0,-0.29l4.04,-0.03zm-10.89,0.39a2.57,2.57 0 0 0 -2.38,1.59a8.35,8.35 0 0 0 -0.67,3.75a7.27,7.27 0 0 0 1,4.29a2.33,2.33 0 0 0 2,1a2.41,2.41 0 0 0 1.45,-0.42a3.36,3.36 0 0 0 1.15,-1.71a9.59,9.59 0 0 0 0.41,-3.06a10.15,10.15 0 0 0 -0.42,-3.37a3.3,3.3 0 0 0 -1.07,-1.58a2.61,2.61 0 0 0 -1.47,-0.51l0,0.02zm-0.1,-0.53a5.64,5.64 0 0 1 6.11,5.79a6,6 0 0 1 -1.27,3.8a5.61,5.61 0 0 1 -4.73,2.18a5.77,5.77 0 0 1 -4.75,-2.12a6,6 0 0 1 -1.32,-3.89a5.62,5.62 0 0 1 1.72,-4.21a5.46,5.46 0 0 1 4.24,-1.57l0,0.02zm-7,11.22l0,0.29l-5.92,0l0,-0.29l0.38,0a1.54,1.54 0 0 0 0.79,-0.18a0.69,0.69 0 0 0 0.33,-0.41a3.37,3.37 0 0 0 0.1,-1.06l0,-7.52a3.67,3.67 0 0 0 -0.1,-1.09a0.81,0.81 0 0 0 -0.37,-0.39a1.44,1.44 0 0 0 -0.75,-0.16l-0.38,0l0,-0.29l5.92,0l0,0.29l-0.38,0a1.5,1.5 0 0 0 -0.78,0.18a0.76,0.76 0 0 0 -0.34,0.4a3.46,3.46 0 0 0 -0.1,1.06l0,7.5a3.75,3.75 0 0 0 0.1,1.1a0.89,0.89 0 0 0 0.37,0.38a1.49,1.49 0 0 0 0.75,0.17l0.38,0.02zm-6.88,-11.08l0,3.07l-0.29,0a4.82,4.82 0 0 0 -0.6,-1.53a2.18,2.18 0 0 0 -0.89,-0.74a3,3 0 0 0 -1.12,-0.15l-0.86,0l0,8.76a3.75,3.75 0 0 0 0.1,1.1a0.89,0.89 0 0 0 0.37,0.38a1.5,1.5 0 0 0 0.76,0.17l0.37,0l0,0.29l-5.92,0l0,-0.29l0.38,0a1.57,1.57 0 0 0 0.79,-0.18a0.84,0.84 0 0 0 0.34,-0.41a3.5,3.5 0 0 0 0.09,-1.06l0,-8.78l-0.83,0a2.36,2.36 0 0 0 -1.65,0.48a3.23,3.23 0 0 0 -0.92,1.94l-0.38,0l0,-3.07l10.26,0.02zm-15.12,7.51l-1.69,-3.87l-1.74,3.87l3.43,0zm0.27,0.62l-4,0l-0.49,1.11a2.45,2.45 0 0 0 -0.24,0.92a0.76,0.76 0 0 0 0.39,0.71a3.26,3.26 0 0 0 1.11,0.21l0,0.29l-3.77,0l0,-0.29a1.78,1.78 0 0 0 1,-0.51a6.76,6.76 0 0 0 1,-1.74l4.06,-9.06l0.16,0l4.1,9.31a5.68,5.68 0 0 0 1,1.69a1.3,1.3 0 0 0 0.81,0.31l0,0.29l-5.54,0l0,-0.29l0.23,0a1.75,1.75 0 0 0 0.93,-0.19a0.46,0.46 0 0 0 0.18,-0.39a0.93,0.93 0 0 0 -0.05,-0.32a6.76,6.76 0 0 0 -0.29,-0.67l-0.59,-1.38zm-15.24,-8.13l5.6,7l0,-4.86a2.33,2.33 0 0 0 -0.3,-1.4a1.61,1.61 0 0 0 -1.35,-0.47l0,-0.29l3.76,0l0,0.29a2.75,2.75 0 0 0 -1,0.24a1,1 0 0 0 -0.39,0.48a3.38,3.38 0 0 0 -0.14,1.15l0,9.47l-0.28,0l-7.67,-9.48l0,7.25a1.61,1.61 0 0 0 0.44,1.33a1.67,1.67 0 0 0 1,0.35l0.27,0l0,0.29l-4.05,0l0,-0.29a1.86,1.86 0 0 0 1.31,-0.39a1.86,1.86 0 0 0 0.37,-1.29l0,-8l-0.24,-0.29a2.19,2.19 0 0 0 -0.64,-0.61a1.8,1.8 0 0 0 -0.79,-0.16l0,-0.29l4.1,-0.03zm-12.09,0.63l0,5l0.48,0a5.41,5.41 0 0 0 1.74,-0.21a1.76,1.76 0 0 0 0.91,-0.77a2.8,2.8 0 0 0 0.33,-1.45a2.65,2.65 0 0 0 -0.6,-1.91a2.68,2.68 0 0 0 -2,-0.62l-0.86,-0.04zm0,5.56l0,3.21a3.61,3.61 0 0 0 0.11,1.15a0.82,0.82 0 0 0 0.4,0.38a2.59,2.59 0 0 0 1.07,0.15l0,0.29l-5.82,0l0,-0.29a2.53,2.53 0 0 0 1.07,-0.15a0.87,0.87 0 0 0 0.4,-0.38a3.65,3.65 0 0 0 0.11,-1.15l0,-7.45a3.69,3.69 0 0 0 -0.11,-1.16a0.87,0.87 0 0 0 -0.4,-0.38a2.83,2.83 0 0 0 -1.07,-0.14l0,-0.29l5.29,0a11.55,11.55 0 0 1 3,0.28a3,3 0 0 1 1.56,1.06a2.78,2.78 0 0 1 0.61,1.8a2.7,2.7 0 0 1 -0.91,2.08a3.72,3.72 0 0 1 -1.62,0.78l2.72,3.85a6.12,6.12 0 0 0 0.77,0.93a1.48,1.48 0 0 0 0.8,0.28l0,0.31l-3.58,0l-3.67,-5.18l-0.73,0.02zm-11.34,-5.56l0,4.63l0.26,0a1.82,1.82 0 0 0 1.57,-0.68a4.22,4.22 0 0 0 0.62,-2l0.33,0l0,6l-0.33,0a4.71,4.71 0 0 0 -0.42,-1.6a1.83,1.83 0 0 0 -0.77,-0.87a2.87,2.87 0 0 0 -1.24,-0.22l0,3.2a4.77,4.77 0 0 0 0.08,1.15a0.65,0.65 0 0 0 0.3,0.34a1.38,1.38 0 0 0 0.7,0.13l0.68,0a4.14,4.14 0 0 0 2.56,-0.73a4,4 0 0 0 1.37,-2.24l0.31,0l-0.51,3.61l-9.83,0l0,-0.29l0.37,0a1.55,1.55 0 0 0 0.8,-0.18a0.78,0.78 0 0 0 0.33,-0.41a3.5,3.5 0 0 0 0.08,-1.06l0,-7.5a5.9,5.9 0 0 0 0,-0.95a0.74,0.74 0 0 0 -0.31,-0.45a1.41,1.41 0 0 0 -0.87,-0.24l-0.37,0l0,-0.29l9.5,0l0,3.36l-0.32,0a4.15,4.15 0 0 0 -0.68,-1.77a2.59,2.59 0 0 0 -1.24,-0.79a6.76,6.76 0 0 0 -1.76,-0.15l-1.21,0zm-5.28,-0.65l0,3.07l-0.29,0a4.82,4.82 0 0 0 -0.6,-1.53a2.28,2.28 0 0 0 -0.9,-0.74a2.85,2.85 0 0 0 -1.11,-0.15l-0.86,0l0,8.78a3.42,3.42 0 0 0 0.1,1.1a0.84,0.84 0 0 0 0.37,0.38a1.45,1.45 0 0 0 0.76,0.17l0.37,0l0,0.29l-5.92,0l0,-0.29l0.37,0a1.52,1.52 0 0 0 0.79,-0.18a0.79,0.79 0 0 0 0.34,-0.41a3.5,3.5 0 0 0 0.12,-1.06l0,-8.78l-0.82,0a2.4,2.4 0 0 0 -1.66,0.48a3.28,3.28 0 0 0 -0.91,1.94l-0.33,0l0,-3.07l10.18,0zm-18.95,0l5.6,7l0,-4.84a2.43,2.43 0 0 0 -0.29,-1.4a1.62,1.62 0 0 0 -1.36,-0.47l0,-0.29l3.76,0l0,0.29a2.82,2.82 0 0 0 -1,0.24a1.06,1.06 0 0 0 -0.39,0.48a3.44,3.44 0 0 0 -0.13,1.15l0,9.47l-0.29,0l-7.67,-9.48l0,7.25a1.61,1.61 0 0 0 0.45,1.33a1.64,1.64 0 0 0 1,0.35l0.27,0l0,0.29l-4,0l0,-0.29a1.86,1.86 0 0 0 1.31,-0.39a1.81,1.81 0 0 0 0.37,-1.29l0,-8l-0.24,-0.29a2.31,2.31 0 0 0 -0.63,-0.61a1.85,1.85 0 0 0 -0.8,-0.16l0,-0.29l4.04,-0.05zm-4.68,11.08l0,0.29l-5.92,0l0,-0.29l0.38,0a1.52,1.52 0 0 0 0.79,-0.18a0.75,0.75 0 0 0 0.34,-0.41a3.5,3.5 0 0 0 0.09,-1.06l0,-7.5a3.81,3.81 0 0 0 -0.09,-1.09a0.86,0.86 0 0 0 -0.37,-0.39a1.51,1.51 0 0 0 -0.76,-0.16l-0.38,0l0,-0.29l5.92,0l0,0.29l-0.37,0a1.52,1.52 0 0 0 -0.79,0.18a0.8,0.8 0 0 0 -0.34,0.4a3.59,3.59 0 0 0 -0.09,1.06l0,7.5a3.9,3.9 0 0 0 0.09,1.1a0.92,0.92 0 0 0 0.38,0.38a1.44,1.44 0 0 0 0.75,0.17l0.37,0zm45.38,-20l-1.69,-3.87l-1.74,3.87l3.43,0zm0.27,0.62l-4,0l-0.5,1.11a2.41,2.41 0 0 0 -0.23,0.92a0.8,0.8 0 0 0 0.38,0.72a3.66,3.66 0 0 0 1.12,0.2l0,0.29l-3.75,0l0,-0.29a1.72,1.72 0 0 0 1,-0.51a6.76,6.76 0 0 0 1,-1.74l4.06,-9.06l0.16,0l4.1,9.32a5.73,5.73 0 0 0 1,1.68a1.32,1.32 0 0 0 0.81,0.31l0,0.29l-5.49,0l0,-0.29l0.22,0a1.66,1.66 0 0 0 0.93,-0.19a0.46,0.46 0 0 0 0.18,-0.39a0.93,0.93 0 0 0 -0.05,-0.32s-0.09,-0.26 -0.25,-0.63l-0.69,-1.42zm-15,-7.5l0,8.87a3.36,3.36 0 0 0 0.07,0.87a0.48,0.48 0 0 0 0.23,0.24a1.41,1.41 0 0 0 0.65,0.13a2.53,2.53 0 0 0 2.14,-1a6.51,6.51 0 0 0 1,-4a7.49,7.49 0 0 0 -0.69,-3.49a2.92,2.92 0 0 0 -1.35,-1.29a5.65,5.65 0 0 0 -2.01,-0.3l-0.04,-0.03zm-4.28,10.77l0,-0.29l0.37,0a1.43,1.43 0 0 0 0.76,-0.16a0.88,0.88 0 0 0 0.39,-0.42a4.27,4.27 0 0 0 0.07,-1.07l0,-7.5a3.85,3.85 0 0 0 -0.09,-1.1a0.75,0.75 0 0 0 -0.37,-0.38a1.38,1.38 0 0 0 -0.76,-0.17l-0.37,0l0,-0.28l5.08,0a8.15,8.15 0 0 1 3.28,0.55a4.9,4.9 0 0 1 2.3,2.05a6.23,6.23 0 0 1 0.78,3.12a6.11,6.11 0 0 1 -0.39,2.21a4.71,4.71 0 0 1 -2.4,2.72a7.67,7.67 0 0 1 -2,0.62a9,9 0 0 1 -1.61,0.1l-5.04,0zm-0.64,-0.29l0,0.29l-5.92,0l0,-0.29l0.36,0a1.52,1.52 0 0 0 0.79,-0.18a0.76,0.76 0 0 0 0.34,-0.4a3.63,3.63 0 0 0 0.09,-1.07l0,-7.5a3.85,3.85 0 0 0 -0.09,-1.1a0.8,0.8 0 0 0 -0.37,-0.38a1.4,1.4 0 0 0 -0.76,-0.16l-0.38,0l0,-0.29l5.92,0l0,0.29l-0.37,0a1.52,1.52 0 0 0 -0.79,0.18a0.8,0.8 0 0 0 -0.34,0.4a3.63,3.63 0 0 0 -0.04,1.06l0,7.5a3.9,3.9 0 0 0 0.09,1.1a0.87,0.87 0 0 0 0.38,0.38a1.44,1.44 0 0 0 0.75,0.17l0.34,0zm-12.89,-10.69a2.58,2.58 0 0 0 -2.38,1.59a8.51,8.51 0 0 0 -0.66,3.75a7.19,7.19 0 0 0 1,4.29a2.32,2.32 0 0 0 2,1a2.45,2.45 0 0 0 1.44,-0.41a3.45,3.45 0 0 0 1.16,-1.72a9.54,9.54 0 0 0 0.41,-3.06a10.15,10.15 0 0 0 -0.42,-3.37a3.3,3.3 0 0 0 -1.07,-1.58a2.62,2.62 0 0 0 -1.48,-0.49zm-0.1,-0.53a5.64,5.64 0 0 1 6.12,5.79a6.06,6.06 0 0 1 -1.27,3.8a5.65,5.65 0 0 1 -4.74,2.18a5.72,5.72 0 0 1 -4.74,-2.08a6,6 0 0 1 -1.33,-3.89a5.66,5.66 0 0 1 1.72,-4.21a5.48,5.48 0 0 1 4.24,-1.59zm-14.74,0.14l5.6,7l0,-4.84a2.35,2.35 0 0 0 -0.29,-1.4a1.61,1.61 0 0 0 -1.35,-0.47l0,-0.29l3.75,0l0,0.29a2.82,2.82 0 0 0 -1,0.24a1,1 0 0 0 -0.38,0.48a3.42,3.42 0 0 0 -0.14,1.15l0,9.47l-0.28,0l-7.65,-9.48l0,7.25a1.6,1.6 0 0 0 0.45,1.33a1.67,1.67 0 0 0 1,0.35l0.27,0l0,0.29l-4.02,0l0,-0.29a1.89,1.89 0 0 0 1.32,-0.39a1.84,1.84 0 0 0 0.36,-1.29l0,-8l-0.23,-0.3a2.19,2.19 0 0 0 -0.64,-0.61a1.8,1.8 0 0 0 -0.79,-0.16l0,-0.33l4.02,0z" transform="translate(-1 -1)"/>
      <path class="cls-13" d="m6.2,39.73a2.36,2.36 0 0 0 0.2,0.78c0.72,1.52 1,-0.3 0.92,-1c0,-0.34 -0.46,-2 -0.9,-1.11a2.5,2.5 0 0 0 -0.22,1.32m-2.92,0.82a1.22,1.22 0 0 0 2.14,-0.15c0.27,-0.46 -0.85,-0.84 -1.15,-0.82s-1.34,0.55 -0.99,0.98l0,-0.01zm2.14,-3.71a2.57,2.57 0 0 0 0,2.78c0.52,0.73 0.7,-0.77 0.72,-1.09a2.63,2.63 0 0 0 -0.49,-1.72c-0.07,-0.07 -0.17,-0.04 -0.23,0.04l0,-0.01zm-3.32,1.87c-0.22,0.33 0.47,0.8 0.7,0.89c0.61,0.25 1.91,-0.4 1.25,-1.07a1.19,1.19 0 0 0 -1.95,0.18zm1.82,-1.78a2.92,2.92 0 0 0 0.12,0.83c0.48,1.49 0.89,0.18 1,-0.6c0,-0.47 0,-1.49 -0.41,-1.82s-0.63,1.13 -0.69,1.29s-0.02,0.2 -0.02,0.3zm-2.87,0.13c-0.25,0.33 0.44,0.85 0.64,1c0.61,0.3 1.88,-0.29 1.28,-1a1.15,1.15 0 0 0 -1.92,0zm1.88,-1.69a2.59,2.59 0 0 0 0.25,1.34c0.43,0.83 0.75,-0.73 0.8,-1a2.8,2.8 0 0 0 -0.31,-1.87c-0.29,-0.31 -0.67,1.07 -0.67,1.23a2.53,2.53 0 0 0 -0.07,0.3zm7.62,11a1.48,1.48 0 0 0 2.1,-0.69c0.36,-0.77 -0.87,-0.7 -1.31,-0.52c-0.24,0.15 -1.28,0.99 -0.79,1.26l0,-0.05zm1.3,-2.53a1.83,1.83 0 0 0 0.35,0.64c1,1.13 1,-0.47 0.8,-1.16c-0.13,-0.39 -0.87,-1.63 -1.15,-0.73a2.05,2.05 0 0 0 0,1.3l0,-0.05zm-2.92,1.7a1.43,1.43 0 0 0 2.19,-0.76c0.2,-0.51 -1.1,-0.49 -1.35,-0.41s-1.3,0.86 -0.84,1.17zm1.53,-4a2.08,2.08 0 0 0 0.54,2.54c0.73,0.55 0.59,-1.12 0.5,-1.45s-0.66,-1.48 -1,-1.1l-0.04,0.01zm-3.12,2.65c-0.2,0.43 0.87,0.63 1.12,0.61c0.5,0 1.69,-0.91 0.88,-1.33a1.44,1.44 0 0 0 -2,0.72zm1.55,-2.12a2.09,2.09 0 0 0 0.29,0.71c0.87,1.33 1,-0.39 0.86,-1.08c-0.08,-0.37 -0.69,-1.84 -1,-0.92a2.27,2.27 0 0 0 -0.15,1.29zm-3,1l0,0.08c0,0.17 0.14,0.27 0.27,0.36a1.31,1.31 0 0 0 2,-0.6c0.23,-0.49 -1,-0.68 -1.27,-0.62a1.43,1.43 0 0 0 -0.98,0.79l-0.02,-0.01zm1.62,-2a2.23,2.23 0 0 0 0.26,0.75c0.8,1.43 1,-0.34 0.88,-1c-0.05,-0.36 -0.57,-2 -1,-1a2.41,2.41 0 0 0 -0.12,1.19l-0.02,0.06zm6.39,6.94a1.63,1.63 0 0 0 2.1,-1c0.33,-0.83 -1,-0.52 -1.38,-0.31c-0.22,0.1 -1.24,1.09 -0.72,1.31zm1.1,-2.67c0.18,0.41 1.11,1.41 1.29,0.52a1.78,1.78 0 0 0 -1.07,-2.05a0.19,0.19 0 0 0 -0.24,0.12a1.82,1.82 0 0 0 0.02,1.41zm-2.81,1.92a1.54,1.54 0 0 0 2.09,-0.84c0.34,-0.8 -0.93,-0.61 -1.34,-0.41c-0.19,0.1 -1.23,1 -0.72,1.25l-0.03,0zm1.24,-4a1.81,1.81 0 0 0 0.72,2.32c0.77,0.41 0.54,-1.09 0.4,-1.45c-0.04,-0.24 -0.87,-1.44 -1.09,-0.91l-0.03,0.04zm5.75,6.33a1.69,1.69 0 0 0 2.19,-1c0.15,-0.46 -1.06,-0.37 -1.26,-0.31a1.56,1.56 0 0 0 -1.06,1.12a0.2,0.2 0 0 0 0.16,0.15l-0.03,0.04zm1,-3.85a1.82,1.82 0 0 0 1.2,2.27c0.46,0.19 0.3,-1 0.25,-1.21a1.89,1.89 0 0 0 -1.16,-1.15a0.21,0.21 0 0 0 -0.25,0.05l-0.04,0.04zm-2.86,3.12c-0.11,0.47 1.07,0.24 1.26,0.17c0.41,-0.16 1.66,-1.24 0.69,-1.44a1.65,1.65 0 0 0 -1.91,1.23l-0.04,0.04zm1.17,-2.37c0.2,0.36 1.22,1.39 1.39,0.54a1.73,1.73 0 0 0 -1.22,-2a0.21,0.21 0 0 0 -0.25,0.11a1.56,1.56 0 0 0 0.12,1.31l-0.04,0.04zm-1.74,-0.57c0.2,0.39 1.19,1.33 1.35,0.47a1.69,1.69 0 0 0 -1.16,-2a0.2,0.2 0 0 0 -0.24,0.12a1.62,1.62 0 0 0 0.09,1.37l-0.04,0.04zm-12.21,-3.91a1.27,1.27 0 0 0 2.17,-0.3c0.25,-0.47 -0.92,-0.76 -1.21,-0.72s-1.33,0.6 -0.96,1.02zm-1.9,-6c0.1,0.16 0.21,0.33 0.33,0.49s0.27,0.4 0.41,0.59a30.75,30.75 0 0 0 2.19,2.77l0.18,0.2c4,4.36 9.23,5.91 12.84,7c2,0.59 3.52,1 4.13,1.76l-0.15,0.12c-0.56,-0.67 -2.06,-1.12 -4,-1.7l-0.7,-0.21a0.18,0.18 0 0 1 0.06,0.13c0,0.58 -0.76,1.2 -1.25,1.35c-0.13,0 -1.16,0.21 -1,-0.22a1.75,1.75 0 0 1 2,-1.34c-3.68,-1.06 -8.36,-2.71 -12.07,-6.72l-0.18,-0.22a32.93,32.93 0 0 1 -2.21,-2.78l-0.41,-0.6c-0.1,-0.15 -0.21,-0.3 -0.31,-0.46c-0.11,0 -0.28,0 -0.53,-0.19a1.45,1.45 0 0 1 -0.45,-0.53a2.68,2.68 0 0 1 -0.26,-1.69c0.17,-0.56 1,0.42 1.1,0.61a3,3 0 0 1 0.28,1.64z" transform="translate(-1 -1)"/>
      <g class="cls-14">
       <rect class="cls-15" height="7.57" width="5.59" x="44.15" y="22.75"/>
      </g>
      <polygon class="cls-16" points="47.83 25.51 44.15 24.43 44.15 30.32 47.83 31.4 47.83 25.51"/>
      <g class="cls-17">
       <rect class="cls-18" height="7.57" width="5.59" x="2.07" y="22.75"/>
      </g>
      <polygon class="cls-16" points="3.98 25.51 7.66 24.43 7.66 30.32 3.98 31.4 3.98 25.51"/>
      <path class="cls-19" d="m27,47.54c-7.38,-5.88 -19.56,-3.89 -21.78,-16c5.78,-7.65 6.18,-14.81 1.11,-21.48l4.9,-4.81c5.62,1.66 10.07,-7.37 15.77,-3.08c5.6,-4.29 10,4.74 15.58,3.08l4.9,4.81c-5.07,6.67 -4.66,13.83 1.1,21.45c-2.22,12.14 -14.18,10.15 -21.58,16.03" transform="translate(-1 -1)"/>
      <path class="cls-12" d="m27,46.42a19.64,19.64 0 0 1 1.93,-1.23c7.35,-4.06 16.63,-3.52 18.68,-13.46c-2.85,-3.87 -4.94,-8.42 -4.51,-13.34a16.8,16.8 0 0 1 3.19,-8.24l-4,-3.91a5.76,5.76 0 0 1 -1.9,0.07a13.07,13.07 0 0 1 -5.13,-2.23c-1.38,-0.85 -3.14,-2 -4.79,-2.17a4.23,4.23 0 0 0 -3,1l-0.47,0.38l-0.54,-0.41a4.25,4.25 0 0 0 -3,-1c-1.67,0.14 -3.45,1.31 -4.84,2.17c-2.22,1.36 -4.52,2.71 -7.12,2.19l-4,3.91a16.71,16.71 0 0 1 3.19,8.24c0.43,4.92 -1.66,9.47 -4.51,13.34a11.26,11.26 0 0 0 4.39,7.17c2.72,2 6.36,3 9.52,4.15a27,27 0 0 1 6.91,3.37" transform="translate(-1 -1)"/>
      <path class="cls-19" d="m30,20.31l6.54,1.5l1.15,-2.7l-8,0.53l0.31,0.67zm0.05,-1.2l8.3,-1.68l0.65,-3.85l-9.15,4.69l0.2,0.84zm-0.66,-0.93l10.11,-7.12l0,-1.82l-3.84,0l-6.76,8.37l0.49,0.57zm-1,-0.66l5.26,-8.28l-3.65,0l-2.2,7.84l0.59,0.44zm-2.74,0l-5.27,-8.28l3.62,0l2.17,7.84l-0.52,0.44zm1.06,0l-1.25,-8.28l3,0l-1.28,8.19l-0.47,0.09zm-2.07,0.66l-10.14,-7.12l0,-1.82l3.84,0l6.76,8.37l-0.46,0.57zm-0.67,1l-8.3,-1.68l-0.67,-3.87l9.14,4.69l-0.17,0.86zm0.03,1.17l-6.54,1.51l-1.15,-2.7l8,0.53l-0.31,0.66zm0.75,1l-5.3,3.71l-1.33,-2.06l5.88,-2.16l0.75,0.51zm4.5,-0.05l5.3,3.7l1.33,-2.12l-5.88,-2.09l-0.75,0.51z" transform="translate(-1 -1)"/>
      <path class="cls-19" d="m27,16.56a3.94,3.94 0 1 1 -4,3.93a3.93,3.93 0 0 1 4,-3.93" transform="translate(-1 -1)"/>
      <path class="cls-13" d="m28.48,39.47q0.93,-0.06 1.86,-0.15l0,0.1l-0.1,0a0.65,0.65 0 0 0 -0.28,0.07a0.37,0.37 0 0 0 -0.12,0.13a1.55,1.55 0 0 0 0,0.39l0,1.77a1.71,1.71 0 0 0 0.07,0.63a0.49,0.49 0 0 0 0.24,0.23a0.74,0.74 0 0 0 0.43,0.06a1,1 0 0 0 0.42,-0.2a1,1 0 0 0 0.31,-0.41a2.31,2.31 0 0 0 0.11,-0.83l0,-1.46a0.66,0.66 0 0 0 -0.06,-0.34a0.23,0.23 0 0 0 -0.12,-0.12a0.74,0.74 0 0 0 -0.34,0l0,-0.1c0.41,-0.07 0.83,-0.14 1.25,-0.23l0,0.1l-0.08,0a0.64,0.64 0 0 0 -0.25,0.11a0.41,0.41 0 0 0 -0.15,0.21a1.14,1.14 0 0 0 0,0.31l0,1.37a3.54,3.54 0 0 1 -0.09,0.94a1.35,1.35 0 0 1 -0.4,0.59a1.65,1.65 0 0 1 -0.89,0.36a1.45,1.45 0 0 1 -0.72,0a1,1 0 0 1 -0.49,-0.4a1.41,1.41 0 0 1 -0.15,-0.71l0,-1.8a1.35,1.35 0 0 0 0,-0.38a0.23,0.23 0 0 0 -0.12,-0.12a0.81,0.81 0 0 0 -0.31,0l-0.02,-0.12zm-0.26,3.53l0,0.1c-0.62,0 -1.25,0 -1.88,0l0,-0.1l0.12,0a0.58,0.58 0 0 0 0.25,-0.05a0.28,0.28 0 0 0 0.11,-0.13a1.06,1.06 0 0 0 0,-0.34l0,-2.37a1.19,1.19 0 0 0 0,-0.35a0.23,0.23 0 0 0 -0.12,-0.12a0.43,0.43 0 0 0 -0.24,-0.06l-0.12,0l0,-0.1c0.63,0 1.26,0 1.88,0l0,0.1l-0.12,0a0.49,0.49 0 0 0 -0.25,0.06a0.36,0.36 0 0 0 -0.11,0.13a1,1 0 0 0 0,0.33l0,2.37a1.19,1.19 0 0 0 0,0.35a0.45,0.45 0 0 0 0.12,0.12a0.43,0.43 0 0 0 0.24,0l0.12,0.06zm-4.56,-3.73l0.88,1.23l0.89,1.19l0,-1.57a0.78,0.78 0 0 0 -0.09,-0.44a0.58,0.58 0 0 0 -0.43,-0.19l0,-0.09l1.19,0.07l0,0.1a0.76,0.76 0 0 0 -0.3,0.06a0.28,0.28 0 0 0 -0.13,0.15a1.22,1.22 0 0 0 0,0.35l0,3l-0.09,0c-0.41,-0.53 -0.82,-1.06 -1.22,-1.61s-0.81,-1.11 -1.22,-1.67l0,2.29a0.54,0.54 0 0 0 0.47,0.6l0.09,0l0,0.09c-0.43,-0.06 -0.86,-0.14 -1.28,-0.23l0,-0.1a0.51,0.51 0 0 0 0.41,0a0.5,0.5 0 0 0 0.12,-0.39l0,-2.55a1,1 0 0 0 -0.08,-0.11a0.8,0.8 0 0 0 -0.2,-0.23a0.65,0.65 0 0 0 -0.25,-0.1l0,-0.12l1.24,0.27z" transform="translate(-1 -1)"/>
      <path class="cls-19" d="m23.74,47.91c0.13,-0.46 -0.53,-0.71 -0.79,-0.35l-1.27,2.9c-0.21,0.48 0.32,0.62 0.66,0.31a0.72,0.72 0 0 1 0.7,-0.25l0.7,-2.61zm2.09,0.57a0.49,0.49 0 0 0 -0.88,-0.39l-1.33,3.38c-0.21,0.54 0.49,0.84 0.86,0.49a0.82,0.82 0 0 1 0.78,-0.27l0.57,-3.21zm1,4.7a0.88,0.88 0 0 0 -0.6,-0.55a0.37,0.37 0 0 1 -0.17,-0.42c0.22,-1.32 0.47,-2.64 0.7,-4l0.56,0c0.23,1.33 0.48,2.65 0.7,4a0.38,0.38 0 0 1 -0.17,0.42a0.88,0.88 0 0 0 -0.6,0.55a0.22,0.22 0 0 1 -0.44,0l0.02,0zm1.4,-4.7c-0.15,-0.52 0.59,-0.8 0.88,-0.39l1.32,3.38c0.22,0.54 -0.48,0.84 -0.86,0.49a0.81,0.81 0 0 0 -0.78,-0.27l-0.56,-3.21zm2.08,-0.57c-0.13,-0.46 0.54,-0.71 0.79,-0.35l1.27,2.9c0.21,0.48 -0.32,0.62 -0.66,0.31a0.71,0.71 0 0 0 -0.7,-0.25l-0.7,-2.61z" transform="translate(-1 -1)"/>
      <path class="cls-19" d="m26.75,26.85c-0.21,0 -0.47,-0.34 -0.66,-0.5a0.86,0.86 0 0 0 -1.29,0c-0.33,0.32 -0.55,0.31 -1,0a1.13,1.13 0 0 0 -1.18,-0.09l-0.7,0.53l-0.92,-1.31c0.41,-0.36 1.07,-1.15 1.62,-0.64c0.8,0.72 1.38,0.94 2.22,0.17a0.71,0.71 0 0 1 1.09,0a1.3,1.3 0 0 0 0.8,0.52a1.33,1.33 0 0 0 0.8,-0.56a0.72,0.72 0 0 1 1.09,0c0.84,0.77 1.42,0.59 2.22,-0.13c0.55,-0.51 1.21,0.28 1.62,0.64l-0.92,1.31l-0.7,-0.53a1.13,1.13 0 0 0 -1.18,0.09c-0.45,0.31 -0.67,0.32 -1,0a0.86,0.86 0 0 0 -1.29,0c-0.19,0.16 -0.4,0.5 -0.62,0.5" transform="translate(-1 -1)"/>
      <path class="cls-19" d="m26.78,28.23a0.66,0.66 0 0 1 -0.68,-0.42c-0.23,-0.54 -0.88,-0.33 -1.17,0c-1,1 -1.73,0.36 -2.49,-0.47a5.17,5.17 0 0 0 1.34,1.85c0.42,0.35 0.78,0.15 1.13,-0.17s0.77,-0.29 1.17,0.1a1,1 0 0 0 0.66,0.36a1.22,1.22 0 0 0 0.74,-0.36c0.4,-0.39 0.76,-0.46 1.16,-0.1s0.71,0.52 1.14,0.17a5.3,5.3 0 0 0 1.34,-1.85c-0.76,0.83 -1.49,1.5 -2.49,0.47c-0.29,-0.29 -0.94,-0.5 -1.17,0a0.67,0.67 0 0 1 -0.68,0.42" transform="translate(-1 -1)"/>
      <g class="cls-20">
       <rect class="cls-21" height="8.87" width="15.66" x="3.98" y="25.54"/>
      </g>
      <polygon class="cls-16" points="16.95 29.61 19.64 28.52 19.64 34.42 16.95 35.5 16.95 29.61"/>
      <g class="cls-22">
       <rect class="cls-23" height="8.87" width="15.66" x="32.17" y="25.54"/>
      </g>
      <polygon class="cls-16" points="34.87 29.61 32.17 28.52 32.17 34.42 34.87 35.5 34.87 29.61"/>
      <g class="cls-24">
       <rect class="cls-25" height="7.29" width="17.92" x="16.95" y="29.58"/>
      </g>
      <path class="cls-7" d="m32.22,34.75l0,0l-0.22,-0.64l-0.25,-0.63l0.25,0l0.23,0l0.12,0.4c0,0.14 0.09,0.27 0.13,0.41l0,0l0.13,-0.43c0,-0.14 0.09,-0.28 0.14,-0.42l0.21,0l0.22,0c-0.08,0.22 -0.16,0.44 -0.25,0.66l-0.24,0.66l0,0.8l-0.21,0l-0.22,0l0,-0.77l-0.04,-0.04zm-1.53,0.87l0,-1.77l-0.46,0l0,-0.3l1.33,-0.08l0,0.31l-0.45,0l0,1.82l-0.42,0l0,0.02zm-1.15,0.05l0,-2.08l0.46,0l0,2.07l-0.43,0l-0.03,0.01zm-1.14,-1.14l0.12,0a0.26,0.26 0 0 0 0.22,-0.07a0.35,0.35 0 0 0 0.06,-0.24a0.33,0.33 0 0 0 -0.06,-0.23a0.32,0.32 0 0 0 -0.22,-0.06l-0.12,0l0,0.6zm-0.4,1.17l0,-2.07l0.63,0a0.71,0.71 0 0 1 0.48,0.11a0.5,0.5 0 0 1 0.14,0.41a0.55,0.55 0 0 1 -0.14,0.45a0.65,0.65 0 0 1 -0.22,0.1l0,0a0.33,0.33 0 0 1 0.26,0.11a0.45,0.45 0 0 1 0.08,0.32l0,0.26c0,0.09 0,0.15 0,0.2a0.31,0.31 0 0 0 0,0.11l-0.43,0s0,-0.06 0,-0.11l0,-0.45a0.3,0.3 0 0 0 -0.06,-0.22s-0.11,-0.06 -0.22,-0.06l-0.12,0l0,0.85l-0.4,0l0,-0.01zm-1,0a0.58,0.58 0 0 1 -0.5,-0.19a0.7,0.7 0 0 1 -0.11,-0.26a2.17,2.17 0 0 1 0,-0.4l0,-0.45a1.28,1.28 0 0 1 0,-0.36a0.49,0.49 0 0 1 0.12,-0.25a0.68,0.68 0 0 1 0.49,-0.19a0.65,0.65 0 0 1 0.47,0.15a0.61,0.61 0 0 1 0.14,0.46l0,0.06l-0.42,0l0,-0.07a0.42,0.42 0 0 0 -0.05,-0.22a0.2,0.2 0 0 0 -0.17,-0.08a0.19,0.19 0 0 0 -0.18,0.11a0.78,0.78 0 0 0 -0.06,0.36l0,0.49a1.35,1.35 0 0 0 0.05,0.45a0.22,0.22 0 0 0 0.21,0.11l0.19,0l0,-0.48l-0.18,0l0,-0.31l0.62,0l0,1a3,3 0 0 1 -0.66,0.08l0.04,-0.01zm-2,-0.05l0,0l0,-2.04l1.05,0l0,0.31l-0.62,0l0,0.55l0.6,0l0,0.3l-0.6,0l0,0.6l0.57,0l0,0.3l-1,-0.02zm-1.17,0l0,-1.77l-0.45,0l0,-0.31l1.33,0.05l0,0.31l-0.45,0l0,1.76l-0.43,0l0,-0.04zm-1.83,-0.1l-0.35,0l0,-2.1l0.31,0l0.32,0l0.18,0.88l0.18,0.89l0,-1.7l0.36,0l0,2.07l-0.3,0l-0.32,0l-0.18,-0.9l-0.2,-0.9l0,1.76zm-1.16,-0.09l0,-2.08l0.21,0l0.21,0l0,2.12l-0.21,0l-0.21,-0.04z" transform="translate(-1 -1)"/>
      <path class="cls-7" d="m16,33.43l0,0l0.15,-1.1l0.15,-1.1l1.1,0.11c0,0.06 0,0.11 0,0.17a0.88,0.88 0 0 0 0,0.16l-0.66,-0.06c0,0.19 -0.05,0.39 -0.07,0.58l0.63,0.06a1,1 0 0 0 0,0.16a1,1 0 0 0 0,0.17l-0.64,-0.06c0,0.21 -0.05,0.42 -0.08,0.63l0.67,0.07a0.88,0.88 0 0 0 0,0.16a1,1 0 0 0 0,0.17l-1.25,-0.12m-1.12,-0.11a0.64,0.64 0 0 1 -0.48,-0.32a1.17,1.17 0 0 1 -0.05,-0.71c0,-0.17 0.05,-0.35 0.07,-0.52a1,1 0 0 1 0.27,-0.62a0.88,0.88 0 0 1 1.06,0.11a0.62,0.62 0 0 1 0.08,0.5a0.13,0.13 0 0 1 0,0.06l-0.45,-0.05a0.17,0.17 0 0 0 0,-0.07a0.37,0.37 0 0 0 0,-0.24a0.23,0.23 0 0 0 -0.37,0a0.9,0.9 0 0 0 -0.11,0.37c0,0.18 -0.05,0.35 -0.08,0.52a1.55,1.55 0 0 0 0,0.48a0.21,0.21 0 0 0 0.18,0.17l0.22,0l0.06,-0.51l-0.2,0c0,-0.11 0,-0.22 0,-0.33l0.66,0.09c0,0.18 0,0.37 -0.07,0.55s0,0.37 -0.08,0.55a2.81,2.81 0 0 1 -0.71,0l0,-0.03zm-1.5,-2.08l-0.33,0.95l0.36,0.06c0,-0.17 0,-0.34 0,-0.51s0,-0.33 0,-0.5l-0.03,0zm-1,1.64l0.42,-1.05c0.13,-0.34 0.27,-0.69 0.41,-1l0.26,0l0.27,0.05l0.08,1.12l0.09,1.13l-0.22,0l-0.22,0c0,-0.16 0,-0.32 0,-0.48l-0.47,-0.15l-0.16,0.45l-0.22,0l-0.24,-0.07zm-0.95,-1.43l0,0l0.12,0a0.37,0.37 0 0 0 0.25,0a0.46,0.46 0 0 0 0.09,-0.24a0.35,0.35 0 0 0 0,-0.26a0.32,0.32 0 0 0 -0.22,-0.11l-0.12,0c-0.07,0.16 -0.1,0.4 -0.13,0.61l0.01,0zm-0.65,1.12l0.22,-1.08c0.05,-0.36 0.11,-0.72 0.17,-1.08l0.22,0l0.44,0.08a0.77,0.77 0 0 1 0.48,0.23a0.55,0.55 0 0 1 0.09,0.46a0.58,0.58 0 0 1 -0.23,0.44a0.68,0.68 0 0 1 -0.25,0.05l0,0a0.35,0.35 0 0 1 0.26,0.17a0.52,0.52 0 0 1 0,0.36a2,2 0 0 0 0,0.26c0,0.1 0,0.17 0,0.22l0,0.11l-0.22,0l-0.23,0a0.47,0.47 0 0 1 0,-0.12s0,-0.12 0,-0.21s0,-0.18 0,-0.27a0.36,0.36 0 0 0 0,-0.24a0.35,0.35 0 0 0 -0.22,-0.11l-0.13,0c0,0.29 -0.1,0.59 -0.14,0.88l-0.23,0l-0.23,-0.15zm-0.3,-0.69a0.64,0.64 0 0 1 -0.25,0.45a0.72,0.72 0 0 1 -0.54,0.05a0.8,0.8 0 0 1 -0.48,-0.27a0.69,0.69 0 0 1 -0.09,-0.52c0,-0.26 0.09,-0.52 0.13,-0.78s0.09,-0.51 0.13,-0.77l0.22,0.05l0.23,0.05c-0.05,0.26 -0.09,0.52 -0.14,0.79s-0.08,0.53 -0.13,0.79a0.39,0.39 0 0 0 0,0.23a0.22,0.22 0 0 0 0.17,0.11a0.23,0.23 0 0 0 0.19,0a0.34,0.34 0 0 0 0.09,-0.21l0.12,-0.79c0,-0.27 0.09,-0.53 0.14,-0.8l0.22,0.05l0.22,0c0,0.26 -0.08,0.52 -0.13,0.77l-0.1,0.8zm-2.48,-0.23a0.19,0.19 0 0 0 0.2,0a0.55,0.55 0 0 0 0.1,-0.29c0.05,-0.29 0.11,-0.59 0.16,-0.88a0.44,0.44 0 0 0 0,-0.24a0.24,0.24 0 0 0 -0.16,-0.11a0.19,0.19 0 0 0 -0.18,0a0.34,0.34 0 0 0 -0.1,0.2c0,0.3 -0.1,0.59 -0.16,0.89a0.78,0.78 0 0 0 0,0.31a0.25,0.25 0 0 0 0.14,0.12zm-0.09,0.35a0.78,0.78 0 0 1 -0.5,-0.3a0.88,0.88 0 0 1 0,-0.6l0.15,-0.89a0.53,0.53 0 0 1 0.25,-0.4a0.79,0.79 0 0 1 0.54,0a0.8,0.8 0 0 1 0.48,0.28a0.61,0.61 0 0 1 0.1,0.49l-0.15,0.88a0.76,0.76 0 0 1 -0.26,0.53a0.68,0.68 0 0 1 -0.61,0.01zm-0.91,-1s0,0 0,0a0.75,0.75 0 0 1 -0.23,0.5a0.69,0.69 0 0 1 -0.54,0a0.8,0.8 0 0 1 -0.5,-0.33a0.94,0.94 0 0 1 0,-0.64l0.12,-0.66a0.83,0.83 0 0 1 0.26,-0.55a0.65,0.65 0 0 1 0.56,0a0.74,0.74 0 0 1 0.46,0.29a0.66,0.66 0 0 1 0.06,0.49l0,0a0.13,0.13 0 0 1 0,0.06a3.6,3.6 0 0 1 -0.44,-0.12s0,0 0,-0.06a0.56,0.56 0 0 0 0,-0.26a0.18,0.18 0 0 0 -0.13,-0.12a0.16,0.16 0 0 0 -0.19,0a0.53,0.53 0 0 0 -0.11,0.29c0,0.22 -0.09,0.44 -0.13,0.66a1.16,1.16 0 0 0 0,0.4a0.23,0.23 0 0 0 0.17,0.17a0.16,0.16 0 0 0 0.17,-0.05a0.57,0.57 0 0 0 0.1,-0.27l0,-0.07l0.37,0.27z" transform="translate(-1 -1)"/>
      <path class="cls-7" d="m46.34,30.3l0,0l0.12,0c0.12,0 0.19,-0.08 0.21,-0.14a0.37,0.37 0 0 0 0,-0.26c0,-0.12 -0.07,-0.19 -0.13,-0.21a0.27,0.27 0 0 0 -0.23,0l-0.13,0c0.06,0.2 0.11,0.4 0.16,0.6m-0.15,1.32l-0.27,-1.05c-0.08,-0.35 -0.17,-0.7 -0.25,-1l0.22,-0.07l0.42,-0.14a0.76,0.76 0 0 1 0.52,-0.05a0.52,0.52 0 0 1 0.26,0.37a0.59,0.59 0 0 1 0,0.5a0.64,0.64 0 0 1 -0.21,0.17l0,0a0.34,0.34 0 0 1 0.3,0a0.46,0.46 0 0 1 0.17,0.3c0,0.08 0,0.17 0.07,0.26a2,2 0 0 0 0.07,0.2a0.3,0.3 0 0 0 0,0.1l-0.23,0.08l-0.22,0.08l-0.05,-0.1a1.89,1.89 0 0 0 0.01,-0.26a2.5,2.5 0 0 0 -0.07,-0.26a0.29,0.29 0 0 0 -0.11,-0.2a0.36,0.36 0 0 0 -0.25,0l-0.13,0.05c0,0.14 0.07,0.28 0.11,0.42l0.12,0.43l-0.23,0.07l-0.25,0.1zm-0.55,-0.47a0.65,0.65 0 0 1 -0.06,0.52a0.82,0.82 0 0 1 -0.48,0.3a0.8,0.8 0 0 1 -0.56,0a0.61,0.61 0 0 1 -0.27,-0.42c-0.06,-0.26 -0.11,-0.51 -0.16,-0.76s-0.11,-0.51 -0.11,-0.78l0.22,-0.05l0.22,-0.06c0,0.25 0.11,0.51 0.17,0.77s0.11,0.51 0.17,0.77a0.34,0.34 0 0 0 0.1,0.2a0.25,0.25 0 0 0 0.2,0a0.29,0.29 0 0 0 0.17,-0.12a0.44,0.44 0 0 0 0,-0.23c-0.06,-0.26 -0.13,-0.51 -0.18,-0.77l-0.18,-0.77l0.22,-0.06l0.22,-0.06l0.18,0.75l0.13,0.77zm-2.43,1a0.22,0.22 0 0 0 0.18,-0.13a0.66,0.66 0 0 0 0,-0.31c0,-0.14 -0.06,-0.29 -0.08,-0.43l-0.09,-0.44a0.34,0.34 0 0 0 -0.1,-0.2a0.21,0.21 0 0 0 -0.19,0a0.26,0.26 0 0 0 -0.17,0.11a0.35,0.35 0 0 0 0,0.23c0,0.15 0,0.29 0.08,0.44s0,0.29 0.08,0.43a0.62,0.62 0 0 0 0.11,0.29a0.22,0.22 0 0 0 0.18,-0.03l0,0.04zm0.07,0.31a0.72,0.72 0 0 1 -0.58,0a0.76,0.76 0 0 1 -0.27,-0.52c0,-0.14 0,-0.29 -0.08,-0.43s-0.05,-0.29 -0.07,-0.44a0.55,0.55 0 0 1 0.09,-0.48a0.85,0.85 0 0 1 0.49,-0.26a0.79,0.79 0 0 1 0.54,0a0.54,0.54 0 0 1 0.26,0.4l0.09,0.43l0.09,0.43a0.62,0.62 0 0 1 -0.56,0.88l0,-0.01zm-2.23,0.43l0,0l-0.19,0l-0.2,0l-0.15,-1.07c0,-0.36 -0.11,-0.71 -0.15,-1.07l0.33,-0.06l0.34,-0.06l0.33,0.86c0.11,0.29 0.23,0.57 0.34,0.86l-0.15,-0.89c0,-0.3 -0.09,-0.6 -0.14,-0.9l0.19,0l0.18,0l0.18,1c0.06,0.36 0.13,0.71 0.19,1.06l-0.35,0.07l-0.34,0.07c-0.12,-0.29 -0.24,-0.58 -0.35,-0.87l-0.33,-0.88c0,0.31 0.09,0.61 0.13,0.91s0.09,0.62 0.14,0.93l0,0.04zm-1.59,0q0.15,0 0.18,-0.12a0.56,0.56 0 0 0 0,-0.31l-0.06,-0.44c0,-0.15 0,-0.3 -0.05,-0.44a0.29,0.29 0 0 0 -0.09,-0.21a0.21,0.21 0 0 0 -0.19,-0.05a0.22,0.22 0 0 0 -0.17,0.1a0.39,0.39 0 0 0 0,0.23c0,0.15 0,0.29 0,0.44s0,0.3 0.05,0.45a0.65,0.65 0 0 0 0.09,0.29a0.21,0.21 0 0 0 0.24,-0.01l0,0.07zm0,0.32a0.59,0.59 0 0 1 -0.8,-0.63c0,-0.15 0,-0.29 -0.05,-0.44s0,-0.3 0,-0.45a0.59,0.59 0 0 1 0.13,-0.48a0.86,0.86 0 0 1 0.5,-0.22a0.84,0.84 0 0 1 0.55,0.07a0.62,0.62 0 0 1 0.23,0.43l0.06,0.44l0.06,0.44a0.82,0.82 0 0 1 -0.09,0.59a0.8,0.8 0 0 1 -0.55,0.18l-0.04,0.07zm-2.57,0.29l-0.09,-1.1c0,-0.37 -0.05,-0.74 -0.07,-1.11l0.23,0l0.23,0l0,0.46c0,0.15 0,0.3 0,0.45l0.44,0c0,-0.15 0,-0.3 0,-0.45l0,-0.46l0.23,0l0.23,0c0,0.36 0.07,0.72 0.1,1.09l0.12,1.08l-0.24,0l-0.24,0c0,-0.16 0,-0.32 0,-0.47s0,-0.32 0,-0.48l-0.45,0c0,0.16 0,0.32 0,0.48s0,0.32 0,0.48l-0.23,0l-0.26,0.03z" transform="translate(-1 -1)"/>
      <path class="cls-13" d="m47.62,39.73a2.65,2.65 0 0 1 -0.21,0.78c-0.72,1.52 -1,-0.3 -0.92,-1c0,-0.34 0.46,-2 0.9,-1.11a2.61,2.61 0 0 1 0.23,1.32m2.91,0.82a1.22,1.22 0 0 1 -2.14,-0.15c-0.27,-0.46 0.85,-0.84 1.15,-0.82s1.34,0.55 0.99,0.98l0,-0.01zm-2.14,-3.71a2.57,2.57 0 0 1 0,2.78c-0.52,0.73 -0.7,-0.77 -0.72,-1.09a2.63,2.63 0 0 1 0.49,-1.72c0.07,-0.07 0.17,-0.04 0.23,0.04l0,-0.01zm3.32,1.86c0.23,0.33 -0.47,0.8 -0.69,0.89c-0.62,0.25 -1.92,-0.4 -1.26,-1.07a1.19,1.19 0 0 1 1.95,0.19l0,-0.01zm-1.82,-1.78a2.61,2.61 0 0 1 -0.12,0.83c-0.48,1.49 -0.89,0.18 -1,-0.6c-0.05,-0.47 0,-1.49 0.41,-1.82s0.64,1.13 0.65,1.29s0.06,0.21 0.06,0.31l0,-0.01zm2.87,0.13c0.25,0.33 -0.44,0.85 -0.64,1c-0.61,0.3 -1.88,-0.29 -1.28,-1a1.15,1.15 0 0 1 1.92,0.01l0,-0.01zm-1.88,-1.69a2.59,2.59 0 0 1 -0.25,1.34c-0.43,0.83 -0.75,-0.73 -0.8,-1s-0.06,-1.51 0.32,-1.87s0.68,1.11 0.7,1.27a1.39,1.39 0 0 1 0.03,0.27l0,-0.01zm-7.62,11a1.48,1.48 0 0 1 -2.1,-0.69c-0.36,-0.77 0.87,-0.7 1.31,-0.52c0.24,0.16 1.28,1 0.79,1.27l0,-0.06zm-1.26,-2.47a2,2 0 0 1 -0.36,0.64c-1,1.13 -1,-0.47 -0.8,-1.16c0.13,-0.39 0.87,-1.63 1.16,-0.73a2.13,2.13 0 0 1 0,1.25zm2.91,1.65a1.43,1.43 0 0 1 -2.19,-0.76c-0.2,-0.51 1.1,-0.49 1.35,-0.41s1.27,0.86 0.81,1.17l0.03,0zm-1.53,-4a2.08,2.08 0 0 1 -0.51,2.51c-0.73,0.55 -0.59,-1.12 -0.5,-1.45s0.66,-1.48 1,-1.1l0.01,0.04zm3.12,2.62c0.2,0.43 -0.87,0.63 -1.12,0.61c-0.5,0 -1.69,-0.91 -0.88,-1.33a1.44,1.44 0 0 1 1.97,0.75l0.03,-0.03zm-1.55,-2.12a2.09,2.09 0 0 1 -0.29,0.71c-0.87,1.33 -1,-0.39 -0.86,-1.08c0.08,-0.37 0.69,-1.84 1,-0.92a2.36,2.36 0 0 1 0.12,1.32l0.03,-0.03zm3,1a0.24,0.24 0 0 1 0,0.08c0,0.17 -0.14,0.27 -0.26,0.36a1.31,1.31 0 0 1 -2,-0.6c-0.23,-0.49 1,-0.68 1.27,-0.62a1.43,1.43 0 0 1 0.94,0.82l0.05,-0.04zm-1.62,-2a2.23,2.23 0 0 1 -0.26,0.75c-0.8,1.43 -1,-0.34 -0.88,-1c0,-0.36 0.57,-2 1,-1a2.41,2.41 0 0 1 0.09,1.22l0.05,0.03zm-6.42,6.97a1.63,1.63 0 0 1 -2.09,-1c-0.33,-0.83 1,-0.52 1.38,-0.31c0.21,0.1 1.23,1.09 0.71,1.31zm-1.13,-2.64c-0.18,0.41 -1.11,1.41 -1.29,0.52a1.78,1.78 0 0 1 1.07,-2.05a0.19,0.19 0 0 1 0.24,0.12a1.82,1.82 0 0 1 -0.02,1.38l0,0.03zm2.82,1.92a1.55,1.55 0 0 1 -2.1,-0.84c-0.34,-0.8 0.93,-0.61 1.34,-0.41c0.23,0.07 1.26,0.97 0.76,1.22l0,0.03zm-1.24,-4a1.83,1.83 0 0 1 -0.72,2.32c-0.78,0.41 -0.55,-1.09 -0.41,-1.45c0.07,-0.27 0.9,-1.47 1.13,-0.94l0,0.07zm-5.76,6.26a1.69,1.69 0 0 1 -2.19,-1c-0.15,-0.46 1.06,-0.37 1.26,-0.31a1.56,1.56 0 0 1 1.06,1.12a0.2,0.2 0 0 1 -0.13,0.19zm-1,-3.85a1.82,1.82 0 0 1 -1.17,2.31c-0.46,0.19 -0.3,-1 -0.24,-1.21a1.87,1.87 0 0 1 1.15,-1.15a0.21,0.21 0 0 1 0.25,0.05l0.01,0zm2.87,3.12c0.1,0.47 -1.08,0.24 -1.27,0.17c-0.41,-0.16 -1.66,-1.24 -0.69,-1.44a1.67,1.67 0 0 1 1.95,1.27l0.01,0zm-1.18,-2.37c-0.2,0.36 -1.22,1.39 -1.39,0.54a1.73,1.73 0 0 1 1.22,-2a0.21,0.21 0 0 1 0.25,0.11a1.56,1.56 0 0 1 -0.09,1.35l0.01,0zm1.71,-0.57c-0.2,0.39 -1.19,1.33 -1.35,0.47a1.69,1.69 0 0 1 1.16,-2a0.2,0.2 0 0 1 0.24,0.12a1.62,1.62 0 0 1 -0.05,1.41zm12.27,-3.87a1.27,1.27 0 0 1 -2.17,-0.3c-0.25,-0.47 0.92,-0.76 1.21,-0.72s1.33,0.6 0.96,1.02zm1.9,-6l-0.32,0.49l-0.42,0.59a30.75,30.75 0 0 1 -2.19,2.77l-0.18,0.2c-4,4.36 -9.23,5.91 -12.84,7c-2,0.59 -3.52,1 -4.13,1.76l0.15,0.12c0.56,-0.67 2.06,-1.12 4,-1.7l0.76,-0.23a0.18,0.18 0 0 0 -0.06,0.13c0,0.58 0.76,1.2 1.25,1.35c0.13,0 1.16,0.21 1.05,-0.22a1.75,1.75 0 0 0 -2,-1.34c3.55,-1.08 8.23,-2.73 11.94,-6.74c0,-0.06 0.12,-0.13 0.18,-0.21a32.93,32.93 0 0 0 2.21,-2.78l0.41,-0.6c0.1,-0.15 0.21,-0.3 0.31,-0.46c0.12,0 0.29,0 0.53,-0.19a1.45,1.45 0 0 0 0.45,-0.53a2.62,2.62 0 0 0 0.26,-1.69c-0.17,-0.56 -1,0.42 -1.1,0.61a3,3 0 0 0 -0.26,1.67z" transform="translate(-1 -1)"/>
     </g>
    </g>
   </g>
  </symbol>
 </defs>
 <g class="layer">
  <title>Layer 1</title>
  <use id="svg_19" transform="matrix(4.58158 0 0 4.51831 100.043 -843.04)" xlink:href="#svg_18"/>
 </g>
</svg>